<?xml version="1.0" encoding="UTF-8"?><svg id="HG" xmlns="http://www.w3.org/2000/svg" xmlns:xlink="http://www.w3.org/1999/xlink" viewBox="0 0 284 160"><defs><style>.cls-1{fill:none;}.cls-2{clip-path:url(#clippath);}.cls-3,.cls-4{fill:#fff;}.cls-5{fill:#264534;}.cls-4{fill-rule:evenodd;}</style><clipPath id="clippath"><rect class="cls-1" x="61.81" y="30.78" width="160.38" height="98.43"/></clipPath></defs><rect class="cls-5" width="284" height="160"/><g id="Gruppe_2148"><g id="Gruppe_2190"><path id="Pfad_40403" class="cls-5" d="M61.81,30.78H222.19v98.43H61.81V30.78Z"/><path id="Pfad_40401" class="cls-4" d="M67.73,123.21H216.27V36.79H67.73V123.21Zm150.91,2.4H65.36V34.39H218.64V125.61Z"/><g id="Gruppe_2189"><g class="cls-2"><g id="Gruppe_2188-2"><path id="Pfad_40402" class="cls-3" d="M102.46,52.49c.31-.11,.6-.25,.88-.43,.32-.26,.91-.85,1.26-1.07,.49-.36,1.06-.61,1.66-.71,.49,.03,.58,.17,.67,.27,.2,.05,.8,.17,.89,.17s.05,.28-.06,.37c-.29,.14-.57,.31-.82,.5-.16,.21-.23,.47-.17,.73,.08,.2,.85,1.3,1.1,1.66s1.03,1.56,1.39,2.04c-.39,.26-.77,.53-1.14,.83-.42,.39-.81,.81-1.16,1.26-.15,.2-.38,.58-.55,.88-.38-.94-.85-2.05-1.07-2.49-.23-.49-.59-.9-1.04-1.19-.51,0-1.02,.12-1.47,.35-.4,.2-.82,.34-1.26,.43-.32,.06-.65,.05-.97-.04-.1-.04-.15-.2-.15-.2-.06,0-.13,0-.19-.01-.25-.11-.49-.26-.69-.44-.12-.14-.17-.33-.14-.51,.46-.37,.95-.7,1.47-.98,.5-.29,1.44-.98,1.56-1.45m27.26,26.23v0Zm28.65,.36c-.11,.1-.18,.24-.18,.39v16.39c0,.16,.04,.31,.11,.45l1.09,2.16s.11,.21-.13,.21h-5.76s-.23,0-.13-.21l1.19-2.37v-16.62c0-.15-.06-.3-.15-.41-.9-.65-2.02-.93-3.12-.79-1.01,0-3.12,.58-3.12,1.9v15.69c0,.16,.03,.31,.08,.46,.27,.79,.83,1.93,1.02,2.62l-.05,.11s-.05,.1-.28,.1c-1.06,.13-2.13-.21-2.91-.94q-3.66-4.38-13.65-16.29s-.15-.18-.15,.06v13.88c0,.16,.04,.31,.1,.45l1.06,2.16s.1,.21-.13,.21h-4.54s-.24,0-.13-.21l1.05-2.16c.07-.14,.1-.29,.11-.45v-17.18c0-.16-.04-.31-.1-.45l-.76-1.64s-.07-.15,.05-.2c.06-.22,.16-.43,.3-.6,.15-.14,.32-.26,.5-.34,.04-.52,.01-1.05-.08-1.56-.11-.73-.28-1.45-.51-2.15-.14-.34-.34-.64-.59-.9-.16-.15-1.64-1.59-2.43-2.56-.81-.99-2.13-2.95-2.57-3.46-.46-.58-.95-1.13-1.48-1.65-.35-.29-.77-.48-1.22-.55-.37-.03-.74,.08-1.03,.32-.34,.21-3.17,2.21-3.69,2.56s-1.87,1.01-2.14,1.18c-.31,.21-.6,.43-.88,.68-.16,.38-.28,.78-.35,1.19-.14,.73-.19,1.47-.14,2.21,.04,.64,.11,1.28,.16,1.61,.06,.45,.04,.91-.05,1.36-.1,.34-.21,.78-.28,1s-.13,.56-.17,.69c.03,.22-.04,.45-.18,.62-.1,.14-.23,.25-.37,.34h1.1s.23,0,.13,.21l-.76,1.64c-.06,.14-.09,.3-.1,.45v12.21c0,3.67,2.65,5.56,6.01,5.56,3.14,0,4.97-2.24,4.97-3.56v-14.21c0-.16-.04-.31-.1-.45l-.76-1.64s-.1-.21,.13-.21h1.24s-.08-.05-.08-.1c.09-.24,.24-.45,.44-.61,.2-.15,.41-.26,.64-.35,.22-.41,.4-.85,.53-1.3,.2-.87,.29-1.75,.27-2.64-.03-.65-.18-1.29-.44-1.88-.31-.54-1.25-2.21-1.56-2.94-.33-.68-.55-1.4-.66-2.14,.2,.24,.39,.47,.53,.63,.44,.51,1.76,2.46,2.57,3.45,.36,.45,.87,.99,1.33,1.46-.03,.44-.1,.88-.18,1.32-.17,.77-.43,2.03-.61,2.5s-.69,1.54-.83,1.8c-.07,.14-.14,.43-.22,.54-.09,.11-.21,.19-.33,.25h2.44s.23,0,.13,.21l-.76,1.64c-.06,.14-.1,.3-.1,.45v17.17c0,.16,.04,.32,.1,.46l1.06,2.16s.1,.21-.13,.21h-3.63c-.14,0-.26-.1-.28-.23-.08-.49-.19-.97-.35-1.44-.02-.09-.11-.15-.2-.13-.03,0-.05,.02-.07,.03-.99,.68-2.35,2-6.77,2-3.41,0-7.99-1.47-7.99-7.14v-13.09c0-.16-.04-.31-.1-.45l-.73-1.64s-.1-.21,.13-.21h.77s-.07-.11-.05-.17c.1-.24,.26-.44,.46-.59,.13-.1,.28-.17,.44-.21,.09-.02,.12-.06,.18-.18,.2-.4,.37-.82,.49-1.26,.18-.88,.27-1.78,.26-2.68-.06-.76-.2-2.34-.31-3.06-.05-.32-.11-.73-.16-1.12,.23,.45,.4,.92,.52,1.41,.3,1.07,.54,2.16,.72,3.25,.05,.44,.14,1.14,.17,1.55-.02,.18-.05,.35-.1,.52-.16,.53-.43,1.31-.47,1.53-.1,.08-.2,.14-.29,.22-.26,.19-.45,.47-.53,.79h.36c.08-.2,.21-.37,.38-.5,.19-.15,.39-.28,.6-.39,.05-.03,.09-.08,.1-.14,.08-.32,.15-.54,.2-.74,.08-.33,.12-.67,.12-1,0-.26-.13-1.28-.19-1.87-.18-1.12-.43-2.22-.73-3.31-.16-.77-.5-1.5-.99-2.12-.6-.72-1.12-1.5-1.53-2.34-.3-.64-1.01-2.91-1.25-3.64l-.05-.14c.15-.34,.32-.67,.51-.99,.36-.64,.81-1.22,1.33-1.74,.34-.32,.71-.59,1.12-.81,.81,.65,1.74,1.12,2.74,1.38,1.35,.42,2.75,.61,4.16,.57,1.66,0,4.96-.27,5.79-.26,.82-.02,1.63,.07,2.42,.28,1.33,.54,2.51,1.38,3.45,2.46,.68,.85,1.19,1.81,1.52,2.85,.35,.97,.79,1.9,1.31,2.78,.32,.45,1.34,1.57,1.92,1.65,.43,.02,.85,0,1.28-.04,.1,.15,.06,.36-.09,.46-.03,.02-.05,.03-.08,.04-.47,.21-.98,.27-1.48,.19-.76-.12-1.46-.49-1.98-1.06-.53-.62-.98-1.31-1.33-2.05-.15-.3-.32-.6-.5-.88-.14,.49-.2,.99-.19,1.49,.09,.63,.24,1.25,.43,1.85,.14,.48,.35,1.25,.51,1.62,.19,.48,.48,.9,.85,1.26,.02,.03,.04,.06,.04,.1,0,.85-.02,1.8-.04,2.22-.02,.54,0,1.09,.04,1.63,.02,.12,.03,.24,.03,.36,0,.21-.07,.42-.18,.6-.06,.07-.12,.14-.19,.2h1.72c.15,0,.29,.07,.38,.18q8.95,11.13,13.17,16.22s.15,.18,.15-.06v-14.02c0-.16-.04-.31-.1-.45l-.76-1.66s-.1-.22,.13-.22h31.19c.13,0,.24,.1,.25,.24l.19,2.83-.04,.09s-.04,.09-.25-.03c-1.15-.71-2.46-1.12-3.81-1.18-1.08-.12-2.17,.04-3.17,.47-.08,.13-.12,.28-.12,.43q.03,1.84,0,6.09c0,.13,.09,.23,.22,.24,0,0,0,0,.01,0h4.91c.13,0,.23,.1,.24,.23,0,0,0,0,0,.01v2.61s-.01,.04-.04,.04c0,0-.04,0-.23-.13-.5-.46-1.13-.76-1.8-.85h-3.3l.02,7.95c0,.16,.04,.31,.09,.46,.16,.38,2.65,.52,3.44,.51,1.86-.07,3.71-.33,5.51-.78v.13c-.01,.12-.05,.23-.12,.33-.47,.79-.91,1.6-1.3,2.43-.07,.13-.2,.21-.34,.21h-11.99s-.23,0-.13-.21l1.07-2.13c.07-.14,.1-.29,.11-.45v-17.37c-.01-.15-.06-.3-.15-.43l-.29-.38-1.17,1.68s-.18,.23-.3,.03c-.51-.83-.95-1.14-2.63-1.14-.94,0-1.86,.28-2.63,.81m28.84-2.71c2.39,0,5.96,1.95,5.96,5.54-.01,1.48-.67,2.88-1.81,3.83-.99,.79-2.13,1.37-3.34,1.7-.3,.1-.14,.41-.04,.55,3.78,5.29,8.34,9.97,13.54,13.89,.39,.27,.79,.51,1.2,.74,0,0,.2,.12-.03,.16-4.81,.78-7.42-1.4-9.54-3.45-3.58-3.5-6.61-7.51-8.98-11.92-.07-.14,.07-.28,.21-.3,2.26-.21,4.2-1.68,5.03-3.79,.48-1.52-.1-3.17-1.42-4.07-.85-.56-1.84-.87-2.86-.91q-1.59,0-1.85,.19c-.12,.09-.18,.23-.19,.38v16.93c0,.16,.04,.31,.11,.45l1.09,2.16s.11,.21-.13,.21h-5.76s-.23,0-.13-.21l1.09-2.16c.07-.14,.1-.29,.11-.45v-17.15c0-.16-.04-.31-.1-.45l-.76-1.67s-.1-.22,.14-.22h8.47Zm-81.6,1.86c-.06,.14-.1,.3-.1,.45v17.18c.02,.16,.05,.31,.12,.45l1.09,2.16s.11,.21-.13,.21h-5.76s-.23,0-.13-.21l1.09-2.16c.07-.14,.1-.29,.11-.45v-8c-.01-.13-.11-.23-.24-.24,0,0,0,0,0,0h-10.47c-.13,0-.23,.1-.23,.23,0,0,0,0,0,.01v8c0,.16,.04,.31,.11,.45l1.09,2.16s.11,.21-.13,.21h-5.76s-.23,0-.13-.21l1.09-2.16c.07-.14,.1-.29,.11-.45v-17.18c0-.16-.04-.31-.1-.45l-.76-1.64s-.1-.21,.13-.21h5.09s.23,0,.13,.21l-.76,1.64c-.06,.14-.1,.3-.1,.45v6.35c0,.13,.1,.23,.23,.24,0,0,0,0,0,0h10.48c.13,0,.23-.1,.23-.23,0,0,0,0,0-.01v-6.35c0-.16-.04-.31-.1-.45l-.76-1.64s-.1-.21,.13-.21h5.09s.23,0,.13,.21l-.76,1.65Zm96.09,12.9c1.92-.03,3.5,1.49,3.53,3.41,.03,1.92-1.49,3.5-3.41,3.53-1.92,.03-3.5-1.49-3.53-3.41,0-.02,0-.03,0-.05-.02-1.9,1.51-3.46,3.41-3.48m0,.47c-1.66-.02-3.02,1.31-3.03,2.97-.02,1.66,1.31,3.02,2.97,3.03,1.66,.02,3.02-1.31,3.03-2.97,0-.01,0-.03,0-.04,0-1.65-1.32-2.99-2.97-2.99,0,0,0,0,0,0m-.62,4.78c-.22,.04-.45,.04-.67,.02,.01-.54,.02-1.08,.02-1.62,0-1.25-.03-1.69-.03-2.28h.7s.33,0,.33,0c.29-.02,.58,.01,.86,.09,.44,.12,.73,.53,.69,.98,0,.54-.4,1.01-.93,1.09,.09,.13,.52,.76,.62,.9,.17,.24,.25,.35,.59,.81-.11,.04-.23,.06-.35,.06-.13,.01-.26,.01-.38,0l-.07-.12c-.16-.28-.35-.55-.52-.82-.33-.51-.36-.56-.5-.74-.17,0-.2,.01-.39,0,0,.31,0,1.16,.04,1.63m-.06-2.09c.39,.06,.79-.02,1.14-.22,.13-.12,.21-.29,.21-.47,0-.13-.04-.27-.11-.38-.18-.27-.47-.28-.88-.28h-.36v1.35"/></g></g></g></g></g></svg>