<?xml version="1.0" encoding="UTF-8"?><svg xmlns="http://www.w3.org/2000/svg" viewBox="0 0 284 160"><defs><style>.cls-1,.cls-2{fill:#fff;}.cls-3{fill:#c20340;}.cls-2{fill-rule:evenodd;}</style></defs><g id="HG"><rect class="cls-3" width="284" height="160"/></g><g id="Logo"><g><g><polygon class="cls-1" points="86.81 53.63 73.71 53.63 65.17 77.36 65.17 53.63 52.38 53.63 52.38 109.24 65.17 109.24 65.17 85.51 74.64 109.24 88.52 109.24 75.72 79.61 86.81 53.63"/><polygon class="cls-1" points="139.41 80.39 131.04 53.63 120.33 53.63 120.33 109.24 132.36 109.24 132.36 82.17 140.81 109.24 151.44 109.24 151.44 53.63 139.41 53.63 139.41 80.39"/><polygon class="cls-1" points="186.31 74.49 186.31 61.69 177.62 53.63 163.35 53.63 154.82 61.69 154.82 101.17 163.74 109.24 177.86 109.24 186.31 101.17 186.31 80.23 170.33 80.23 170.33 90.7 173.51 90.7 173.51 98.76 167.62 98.76 167.62 64.1 173.51 64.1 173.51 74.49 186.31 74.49"/><path class="cls-1" d="M94.76,53.63l-8.45,8.07v39.47l8.45,8.07h14.27l8.22-8.07V61.69l-8.76-8.07h-13.73Zm4.35,45.14v-34.67h5.35v34.67h-5.35Z"/></g><path class="cls-2" d="M227.97,83.58c-.55-.55,0-1.24,0-1.24,0,0,1.43-1.82,1.17-6.68-.22-3.94-3.01-6.81-3.81-7.45-.69-.55-.17-1.56-.17-1.56,0,0,1.22-3.18-1.52-7.22-2.71-4.02-6.32-5.38-8.79-5.83-.5-.59-1.63-1.01-2.94-1.01-1.38,0-2.55,.45-3.02,1.08-2.39,.51-5.67,1.93-8.25,5.69-2.76,4.04-1.56,7.22-1.56,7.22,0,0,.63,.92-.18,1.56-.8,.65-3.62,3.49-3.86,7.43-.3,4.86,1.13,6.68,1.13,6.68,0,0,.56,.64,0,1.24-.7,.75-4.94,5.23-3.37,13.31,1.75,8.95,9.92,12.25,9.92,12.25,3.95,1.57,15.53,1.48,18.75,.21,1-.55,7.98-3.43,9.78-12.37,1.63-8.07-2.56-12.59-3.28-13.32"/><path class="cls-2" d="M188.45,53.3v1.7h-.55v-3.86h1.61c.8,0,1.21,.36,1.21,1.09,0,.62-.33,.97-1,1.04l1.12,1.72h-.62l-1.05-1.7h-.71Zm0-.44h.69c.34,0,.58-.03,.73-.09,.2-.09,.3-.28,.3-.55,0-.42-.29-.63-.88-.63h-.84v1.27Zm-1.99,.2c0,.79,.26,1.47,.79,2.01,.53,.54,1.18,.81,1.96,.81s1.44-.27,1.96-.81c.53-.54,.79-1.21,.79-2.01s-.27-1.45-.8-1.99c-.53-.54-1.18-.8-1.95-.8s-1.43,.26-1.96,.8c-.53,.54-.79,1.2-.79,1.99m-.55,0c0-.91,.32-1.69,.96-2.33,.65-.65,1.43-.97,2.34-.97s1.69,.32,2.33,.97c.65,.64,.97,1.42,.97,2.33s-.32,1.69-.97,2.34c-.64,.64-1.42,.96-2.33,.96s-1.69-.32-2.34-.96c-.64-.65-.96-1.43-.96-2.34"/></g></g></svg>