<?xml version="1.0" encoding="utf-8"?>
<!-- Generator: Adobe Illustrator 27.4.0, SVG Export Plug-In . SVG Version: 6.00 Build 0)  -->
<svg version="1.1" id="Ebene_1" xmlns="http://www.w3.org/2000/svg" xmlns:xlink="http://www.w3.org/1999/xlink" x="0px" y="0px"
	 viewBox="0 0 250 250" style="enable-background:new 0 0 250 250;" xml:space="preserve">
<style type="text/css">
	.st0{fill:#FFFFFF;}
	.st1{fill:#76B72A;}
	.st2{fill:#1D1D1B;}
	.st3{fill-rule:evenodd;clip-rule:evenodd;fill:#1D1D1B;}
	.st4{fill-rule:evenodd;clip-rule:evenodd;fill:#76B72A;}
</style>
<g>
	<path class="st0" d="M63,21.6L0,125l63.2,104h123.7L250,125.2L187.2,21.6H63z"/>
	<path class="st1" d="M68.6,31.6l-56.1,92.9l56.2,93.6h111.9l56.1-93.6l-56.1-92.9C180.6,31.6,68.6,31.6,68.6,31.6z M174.8,41.8
		c2.8,4.5,46.9,77.9,49.9,82.7c-2.9,4.9-47.2,78.8-49.9,83.3c-5.4,0-95,0-100.3,0c-2.8-4.5-47.1-78.5-50-83.3
		c2.9-4.9,47.3-78.1,50-82.7C79.7,41.8,169.4,41.8,174.8,41.8z"/>
	<path class="st2" d="M75.1,116.5h4.9c5.5,0,11.8,0.6,11.8,7.1c0,6.1-6.1,6.9-12,6.9h-4.7L75.1,116.5L75.1,116.5z M59.2,141.8h25.3
		c10.7,0,23.3-3,23.3-17.3c0-7.3-4.1-11.6-12.1-13.2v-0.2c6.7-2.3,10.5-6.4,10.5-14c0-10.3-8.4-15.2-19.5-15.2H59.2V141.8z
		 M75.1,93.3h4.6c5.4,0,10.5,0.5,10.5,6c0,5.1-5.4,6.4-10.6,6.4h-4.4V93.3z"/>
	<path class="st2" d="M156.1,111.9c0-10.4,3.8-19.2,13.6-19.2c9.7,0,13.6,8.8,13.6,19.2c0,9.9-3.8,19.2-13.6,19.2
		C160,131,156.1,121.7,156.1,111.9z M139.6,111.9c0,19.1,10.5,31,30,31s30-12,30-31c0-19.2-10.3-31-30-31
		C149.9,80.9,139.6,92.6,139.6,111.9z"/>
	<path class="st3" d="M128.2,89.3c0,4.4-3.6,8-8,8c-4.4,0-8-3.6-8-8s3.6-8,8-8C124.6,81.2,128.2,84.8,128.2,89.3L128.2,89.3z"/>
	<path class="st4" d="M128.3,141.8c0.8-2.2,10-28.1,20.4-40.8c9.5-11.4,24.1-25.1,42.3-13.1c0,0-17.2-16.2-39.7-3.3
		c-14.3,8.4-21.7,23.1-23.1,26.9V96.1c-1.9,2.4-4.9,3.9-8.1,3.9c-3.1,0-5.9-1.4-7.8-3.6v45.3H128.3z"/>
	<path class="st2" d="M111.4,157.7c0-0.6-0.1-1.2-0.1-1.7h1.3l0.1,1.2l0,0c0.4-0.9,1.1-1.3,2-1.3c1.3,0,2.3,0.8,2.3,2.5v5.4h-1.3
		v-5.1c0-1.3-0.5-1.8-1.3-1.8c-1,0-1.7,0.7-1.7,2.1v4.8h-1.3L111.4,157.7L111.4,157.7z"/>
	<path class="st2" d="M122.8,161c0,1.1-0.7,2-1.8,2c-0.9,0-1.3-0.5-1.3-1.3c0-0.9,0.8-1.7,2.3-1.7c0.3,0,0.7,0,0.9,0V161z
		 M119.2,157.7c0.4-0.5,1.3-0.8,2-0.8c0.5,0,1.1,0.2,1.3,0.5c0.3,0.3,0.3,0.7,0.3,1.3v0.3h-0.8c-2.7,0-3.7,1.1-3.7,2.7
		c0,1.5,1,2.3,2.3,2.3c1.2,0,1.8-0.6,2.2-1.2l0,0l0.1,1.1h1.2c0-0.3-0.1-0.8-0.1-1.2v-4.1c0-1.1-0.3-1.6-0.7-1.9
		c-0.3-0.3-0.9-0.8-2.1-0.8c-0.8,0-1.6,0.3-2.3,0.7L119.2,157.7z"/>
	<path class="st2" d="M130.5,157.4c-0.4-0.3-0.9-0.3-1.5-0.3c-1.3,0-2.2,0.9-2.2,3c0,1.8,0.8,2.8,2.1,2.8c0.6,0,1.2-0.2,1.6-0.4
		l0.1,1.2c-0.4,0.2-1.1,0.3-1.7,0.3c-2.3,0-3.5-1.8-3.5-3.9c0-2.5,1.3-4.1,3.5-4.1c0.5,0,1.2,0.1,1.6,0.3V157.4z"/>
	<path class="st2" d="M131.9,152.3h1.3v4.8l0,0c0.3-0.7,1-1.2,1.9-1.2c1.3,0,2.3,0.8,2.3,2.5v5.4h-1.3v-5c0-1.3-0.5-1.8-1.3-1.8
		c-1,0-1.7,0.7-1.7,2.1v4.8h-1.3V152.3z"/>
	<path class="st2" d="M67,172.8h5v1.2h-3.7v3.4h3.5v1.2h-3.5v3.8h3.8v1.2H67V172.8z"/>
	<path class="st2" d="M81.2,183.1c-0.7,0.3-1.7,0.6-2.7,0.6c-3.4,0-4.9-2.6-4.9-5.5c0-3.3,1.9-5.4,4.8-5.4c0.9,0,1.8,0.1,2.5,0.5
		v1.3c-0.8-0.4-1.8-0.7-2.5-0.7c-1.8,0-3.3,1.4-3.3,4c0,2.8,1.1,4.6,3.4,4.6c0.4,0,1-0.1,1.3-0.3v-3.4h-1.8v-1.2h3.1L81.2,183.1
		L81.2,183.1z"/>
	<path class="st2" d="M83.1,178.6h3.3v1.1h-3.3V178.6z"/>
	<path class="st2" d="M92.4,171.7h1.3v-1.5h-1.3V171.7z M89.9,171.7h1.3v-1.5h-1.3V171.7z M87.8,178.2c0,3.3,1.5,5.4,3.9,5.4
		c2.5,0,4-1.8,4-5.6c0-3.3-1.5-5.4-3.9-5.4C89.3,172.6,87.8,174.5,87.8,178.2z M89.2,178.2c0-3.3,1.2-4.5,2.6-4.5
		c1.8,0,2.5,2.1,2.5,4.3c0,3.3-1.2,4.5-2.6,4.5C89.9,182.5,89.2,180.4,89.2,178.2z"/>
	<path class="st2" d="M101.4,175.6h1.5l-3.1,3.5l3.3,4.4h-1.6l-2.8-3.9l0,0v3.9h-1.3v-11.5h1.3v6.9L101.4,175.6z"/>
	<path class="st2" d="M104.7,179.5c0-2,0.6-3,1.8-3s1.8,1,1.8,3c0,2-0.6,3-1.8,3C105.2,182.6,104.7,181.5,104.7,179.5z M103.2,179.5
		c0,2.4,1.1,4,3.2,4c2.1,0,3.2-1.6,3.2-4c0-2.4-1.1-4-3.2-4C104.3,175.5,103.2,177.1,103.2,179.5z"/>
	<path class="st2" d="M110.8,178.6h3.3v1.1h-3.3V178.6z"/>
	<path class="st2" d="M114.9,172.8h1.5l2.5,8.8l0,0l2.7-8.8h1.3l-3.3,10.8h-1.3L114.9,172.8z"/>
	<path class="st2" d="M124.3,179c0-1.8,0.8-2.4,1.6-2.4c1,0,1.5,0.8,1.5,2.4H124.3z M128.8,180v-0.7c0-2.3-1-3.8-2.8-3.8
		c-1.9,0-3,1.6-3,4s1.1,4,3.2,4c0.8,0,1.6-0.2,2.2-0.5l-0.1-1.2c-0.4,0.3-1.2,0.7-1.8,0.7c-1.4,0-2.2-0.8-2.2-2.7L128.8,180
		L128.8,180z"/>
	<path class="st2" d="M130.2,177.4c0-0.6-0.1-1.2-0.1-1.7h1.3l0.1,1.3l0,0c0.4-0.9,1.1-1.3,2.3-1.3v1.3c-0.2,0-0.3-0.1-0.5-0.1
		c-1,0-1.7,0.8-1.7,2.6v4.2h-1.3L130.2,177.4L130.2,177.4z"/>
	<path class="st2" d="M135.8,179.5c0-2,0.6-3,1.8-3s1.8,1,1.8,3c0,2-0.6,3-1.8,3C136.3,182.6,135.8,181.5,135.8,179.5z M134.4,179.5
		c0,2.4,1.1,4,3.2,4c2.1,0,3.2-1.6,3.2-4c0-2.4-1.1-4-3.2-4C135.5,175.5,134.4,177.1,134.4,179.5z"/>
	<path class="st2" d="M142.2,177.4c0-0.6-0.1-1.2-0.1-1.7h1.3l0.1,1.3l0,0c0.4-0.9,1.1-1.3,2.3-1.3v1.3c-0.2,0-0.3-0.1-0.5-0.1
		c-1,0-1.7,0.8-1.7,2.6v4.2h-1.3L142.2,177.4L142.2,177.4z"/>
	<path class="st2" d="M151.1,179.5c0,2-0.5,3-1.8,3c-1.2,0-1.8-1-1.8-3c0-2,0.5-3,1.8-3C150.6,176.6,151.1,177.6,151.1,179.5z
		 M152.4,171.9h-1.3v4.8l0,0c-0.5-0.8-1.1-1.2-2-1.2c-1.6,0-2.7,1.3-2.7,4c0,2.7,1.1,4,2.7,4c1.2,0,1.8-0.7,2.1-1.3l0,0l0.1,1.2h1.3
		c0-0.5-0.1-1-0.1-1.4L152.4,171.9L152.4,171.9z"/>
	<path class="st2" d="M154.2,177.4c0-0.6-0.1-1.2-0.1-1.7h1.3l0.1,1.2l0,0c0.4-0.9,1.1-1.3,2-1.3c1.3,0,2.3,0.8,2.3,2.5v5.4h-1.3
		v-5.1c0-1.3-0.5-1.8-1.3-1.8c-1,0-1.7,0.7-1.7,2.1v4.8h-1.3V177.4z"/>
	<path class="st2" d="M167.2,181.8c0,0.6,0.1,1.2,0.1,1.7H166l-0.1-1.2l0,0c-0.4,0.9-1.1,1.3-2,1.3c-1.3,0-2.3-0.8-2.3-2.5v-5.4h1.3
		v5.1c0,1.3,0.5,1.8,1.3,1.8c1,0,1.7-0.7,1.7-2.1v-4.8h1.3L167.2,181.8L167.2,181.8z"/>
	<path class="st2" d="M169.1,177.4c0-0.6-0.1-1.2-0.1-1.7h1.3l0.1,1.2l0,0c0.4-0.9,1.1-1.3,2-1.3c1.3,0,2.3,0.8,2.3,2.5v5.4h-1.3
		v-5.1c0-1.3-0.5-1.8-1.3-1.8c-1,0-1.7,0.7-1.7,2.1v4.8h-1.3L169.1,177.4L169.1,177.4z"/>
	<path class="st2" d="M177.4,179.5c0-2,0.5-3,1.8-3c1.2,0,1.8,1,1.8,3c0,2-0.5,3-1.8,3C178,182.6,177.4,181.5,177.4,179.5z
		 M182.1,177c0-0.5,0.1-1,0.1-1.4H181l-0.1,1.2l0,0c-0.4-0.8-1.2-1.3-1.9-1.3c-1.8,0-2.8,1.3-2.8,4c0,2.7,1.1,4,2.7,4
		c0.8,0,1.6-0.4,2.1-1.3l0,0v1.3c0,1.3-0.6,2.3-2.2,2.3c-0.7,0-1.6-0.3-2.2-0.7l-0.1,1.3c0.6,0.3,1.7,0.5,2.3,0.5
		c1.8,0,3.3-0.9,3.3-3.1L182.1,177L182.1,177z"/>
</g>
</svg>
