<?xml version="1.0" encoding="utf-8"?>
<!-- Generator: Adobe Illustrator 27.4.1, SVG Export Plug-In . SVG Version: 6.00 Build 0)  -->
<svg version="1.1" id="Ebene_1" xmlns="http://www.w3.org/2000/svg" xmlns:xlink="http://www.w3.org/1999/xlink" x="0px" y="0px"
	 viewBox="0 0 76 43" style="enable-background:new 0 0 76 43;" xml:space="preserve">
<style type="text/css">
	.st0{fill:#FFCC00;}
	.st1{fill:#D40511;}
</style>
<rect y="0" class="st0" width="76" height="43"/>
<g>
	<g>
		<g>
			<polygon class="st1" points="5.1,24.2 14,24.2 13.5,24.9 5.1,24.9 			"/>
			<polygon class="st1" points="5.1,23 14.9,23 14.5,23.6 5.1,23.6 			"/>
			<polygon class="st1" points="5.1,25.4 13.1,25.4 12.6,26.1 5.1,26.1 			"/>
		</g>
		<g>
			<polygon class="st1" points="70.9,24.9 62.1,24.9 62.5,24.2 70.9,24.2 			"/>
			<polygon class="st1" points="70.9,26.1 61.1,26.1 61.6,25.4 70.9,25.4 			"/>
			<polygon class="st1" points="63.5,23 70.9,23 70.9,23.6 62.9,23.6 			"/>
		</g>
	</g>
	<g>
		<path class="st1" d="M13.8,26.1l4.2-5.7h5.3c0.6,0,0.6,0.3,0.3,0.6c-0.3,0.3-0.8,1-1,1.5c-0.2,0.2-0.4,0.6,0.4,0.6h7
			c-0.6,0.8-2.5,3.1-5.9,3.1L13.8,26.1L13.8,26.1z"/>
		<path class="st1" d="M37.9,23l-2.3,3.1h-6.1l2.3-3.1H37.9z"/>
		<path class="st1" d="M46.7,23l-2.3,3.1h-6.1l2.3-3.1H46.7z"/>
		<path class="st1" d="M48.6,23c0,0-0.4,0.6-0.7,0.9c-0.8,1-0.1,2.3,2.4,2.3H60l2.3-3.1L48.6,23L48.6,23z"/>
	</g>
	<g>
		<path class="st1" d="M16.7,16.8l-2.1,2.9H26c0.6,0,0.6,0.3,0.3,0.6c-0.3,0.3-0.8,1-1,1.5c-0.2,0.2-0.4,0.6,0.4,0.6h4.7
			c0,0,0.8-1,1.4-1.9c0.9-1.1,0.1-3.6-3-3.6H16.7V16.8z"/>
		<polygon class="st1" points="47.2,22.3 32.4,22.3 36.4,16.8 42.5,16.8 40.2,19.9 42.8,19.9 45.2,16.8 51.2,16.8 		"/>
		<path class="st1" d="M59.6,16.8l-4.1,5.5h-6.4l4.1-5.5H59.6z"/>
	</g>
</g>
</svg>
