<?xml version="1.0" encoding="utf-8"?>
<!-- Generator: Adobe Illustrator 27.4.1, SVG Export Plug-In . SVG Version: 6.00 Build 0)  -->
<svg version="1.1" id="Ebene_1" xmlns="http://www.w3.org/2000/svg" xmlns:xlink="http://www.w3.org/1999/xlink" x="0px" y="0px"
	 viewBox="0 0 76 43" style="enable-background:new 0 0 76 43;" xml:space="preserve">
<style type="text/css">
	.st0{fill:#FFFFFF;}
	.st1{enable-background:new    ;}
	.st2{fill:#AFCA0B;}
</style>
<g id="hg">
	<rect width="76" height="43"/>
</g>
<g id="text-logo">
	<path class="st0" d="M68.5,25.8l-2.9,3.8v3.1H64v-3.1l-2.9-3.8h2l1.7,2.3l1.7-2.3C66.6,25.8,68.5,25.8,68.5,25.8z M52.5,25.8v1.4
		H55v5.5h1.6v-5.5h2.5v-1.4L52.5,25.8L52.5,25.8z M44.6,27.1H47c0.7,0,1,0.3,1,0.8s-0.3,0.8-1,0.8h-2.3L44.6,27.1L44.6,27.1z
		 M49.9,32.6L48.1,30c1-0.3,1.5-1,1.5-2c0-1.4-0.8-2.2-2.4-2.2h-4.1v6.8h1.6v-2.5h1.7l1.7,2.5H49.9L49.9,32.6L49.9,32.6z M32.6,25.8
		v6.8h6.2v-1.4h-4.6v-1.4h4v-1.4h-4V27h4.6v-1.4L32.6,25.8L32.6,25.8L32.6,25.8z M27.6,25.8l-2,5.1l-2-5.1h-1.7l2.9,6.8h1.6l2.9-6.8
		H27.6L27.6,25.8z M17,32.6h1.6v-6.8H17V32.6L17,32.6z M7.5,32.6h1.6v-5.3H7.5V32.6z M9.1,27.3h5.3v-1.6H9.1V27.3L9.1,27.3z"/>
</g>
<g class="st1">
	<path class="st2" d="M10.9,11.4c1.3,0,2.1,0.8,2.1,2.5c0,1-0.3,1.7-1.1,2.1l1.3,3.9H12l-1.1-3.6h-0.7v3.6H8.9v-8.5H10.9z
		 M10.1,15.2h0.7c0.6,0,1-0.2,1-1c0-0.1,0-0.3,0-0.4c0-0.8-0.1-1.3-1.1-1.3h-0.6C10.1,12.5,10.1,15.2,10.1,15.2z"/>
	<path class="st2" d="M16.9,11.4l1.9,8.5h-1.2l-0.4-1.8h-1.7l-0.4,1.8H14l1.9-8.5H16.9z M15.8,16.9H17l-0.6-3.1l0,0L15.8,16.9z"/>
	<path class="st2" d="M22.7,11.4v1.2h-1.4V20H20v-7.4h-1.4v-1.2C18.6,11.4,22.7,11.4,22.7,11.4z"/>
	<path class="st2" d="M27.1,11.4v1.2h-2.4V15h2.1v1.2h-2.1v2.5h2.4v1.2h-3.6v-8.5C23.5,11.4,27.1,11.4,27.1,11.4z"/>
	<path class="st2" d="M29.3,11.4l1.8,5.1l0,0v-5.1h1.2v8.5h-1.2l-1.9-5.1l0,0v5.1H28v-8.5H29.3z"/>
	<path class="st2" d="M36.9,11.4v1l-2.4,6.4h2.4V20h-3.6v-1.1l2.3-6.3h-2.2v-1.2H36.9z"/>
	<path class="st2" d="M40.5,11.4l1.9,8.5h-1.2l-0.4-1.8h-1.7l-0.4,1.8h-1.2l1.9-8.5H40.5z M39.4,16.9h1.2L40,13.8l0,0L39.4,16.9z"/>
	<path class="st2" d="M44.5,11.4V15H46v-3.7h1.2v8.5H46V16h-1.5v3.8h-1.2v-8.5h1.2V11.4z"/>
	<path class="st2" d="M49.6,11.4v7.3H52v1.2h-3.6v-8.5C48.4,11.4,49.6,11.4,49.6,11.4z"/>
	<path class="st2" d="M53.8,11.4v6.5c0,0.5,0.3,0.9,0.8,0.9s0.8-0.3,0.8-0.9v-6.5h1.2V18c0,1.1-0.9,2-2,2s-2-0.9-2-2v-6.6H53.8z"/>
	<path class="st2" d="M58.8,11.4l1.8,5.1l0,0v-5.1h1.2v8.5h-1.2l-1.9-5.1l0,0v5.1h-1.2v-8.5H58.8z"/>
	<path class="st2" d="M65.9,13.8v-0.4c0-0.8-0.5-0.9-0.8-0.9c-0.5,0-0.8,0.3-0.8,0.8v4.6c0,0.5,0.4,0.8,0.8,0.8s0.8-0.3,0.8-0.8
		v-1.6h-1v-1.1h2.2v2.7c0,1.2-0.9,2-2.1,2c-1.1,0-2.1-0.8-2.1-2v-4.6c0-1.2,0.9-2,2.1-2c0.8,0,2.1,0.5,2.1,2.1v0.4
		C67.1,13.8,65.9,13.8,65.9,13.8z"/>
</g>
</svg>
