<?xml version="1.0" encoding="utf-8"?>
<!-- Generator: Adobe Illustrator 27.4.1, SVG Export Plug-In . SVG Version: 6.00 Build 0)  -->
<svg version="1.1" id="Ebene_1" xmlns="http://www.w3.org/2000/svg" xmlns:xlink="http://www.w3.org/1999/xlink" x="0px" y="0px"
	 viewBox="0 0 76 43" style="enable-background:new 0 0 76 43;" xml:space="preserve">
<style type="text/css">
	.st0{clip-path:url(#SVGID_00000098941723115974426850000017387329299343274384_);}
	.st1{fill:#FFFFFF;}
</style>
<g id="hg">
	<rect y="0" width="76" height="43"/>
</g>
<g id="text-logo">
	<g>
		<defs>
			<rect id="SVGID_1_" x="7.8" y="15" width="60.5" height="14.7"/>
		</defs>
		<clipPath id="SVGID_00000069380351481906833790000004179312984562537870_">
			<use xlink:href="#SVGID_1_"  style="overflow:visible;"/>
		</clipPath>
		<g style="clip-path:url(#SVGID_00000069380351481906833790000004179312984562537870_);">
			<path class="st1" d="M54.3,18.2H51c-0.2,0-0.4,0.2-0.5,0.4l-1.3,8.5c0,0.2,0.1,0.3,0.3,0.3h1.7c0.2,0,0.3-0.1,0.3-0.3l0.4-2.4
				c0-0.2,0.2-0.4,0.5-0.4h1c2.2,0,3.5-1.1,3.8-3.2c0.2-0.9,0-1.6-0.4-2.1C56.3,18.5,55.4,18.2,54.3,18.2 M54.7,21.4
				c-0.2,1.2-1.1,1.2-2,1.2h-0.5l0.3-2.2c0-0.1,0.1-0.2,0.3-0.2h0.2c0.6,0,1.2,0,1.5,0.3C54.7,20.6,54.8,20.9,54.7,21.4"/>
			<path class="st1" d="M30.6,18.2h-3.3c-0.2,0-0.4,0.2-0.5,0.4l-1.4,8.5c0,0.2,0.1,0.3,0.3,0.3h1.6c0.2,0,0.4-0.2,0.5-0.4l0.4-2.3
				c0-0.2,0.2-0.4,0.5-0.4h1c2.2,0,3.5-1.1,3.8-3.2c0.2-0.9,0-1.6-0.4-2.1C32.6,18.5,31.7,18.2,30.6,18.2 M31,21.4
				c-0.2,1.2-1.1,1.2-2,1.2h-0.5l0.4-2.2c0-0.1,0.1-0.2,0.3-0.2h0.2c0.6,0,1.2,0,1.5,0.3C31,20.6,31.1,20.9,31,21.4"/>
			<path class="st1" d="M40.6,21.3H39c-0.1,0-0.2,0.1-0.3,0.2L38.6,22l-0.1-0.2c-0.3-0.5-1.1-0.7-1.9-0.7c-1.8,0-3.3,1.3-3.6,3.2
				c-0.2,0.9,0.1,1.8,0.6,2.5c0.5,0.6,1.2,0.8,2,0.8c1.4,0,2.2-0.9,2.2-0.9l-0.1,0.4c0,0.2,0.1,0.3,0.3,0.3h1.4
				c0.2,0,0.4-0.2,0.5-0.4l0.9-5.5C40.9,21.5,40.7,21.3,40.6,21.3 M38.3,24.4c-0.2,0.9-0.9,1.5-1.8,1.5c-0.5,0-0.8-0.1-1.1-0.4
				c-0.2-0.3-0.3-0.7-0.2-1.1c0.1-0.9,0.9-1.5,1.8-1.5c0.5,0,0.8,0.1,1.1,0.4C38.3,23.6,38.4,24,38.3,24.4"/>
			<path class="st1" d="M64.3,21.3h-1.6c-0.1,0-0.2,0.1-0.3,0.2L62.3,22l-0.1-0.2c-0.3-0.5-1.1-0.7-1.9-0.7c-1.8,0-3.3,1.3-3.6,3.2
				c-0.2,0.9,0.1,1.8,0.6,2.5c0.5,0.6,1.2,0.8,2,0.8c1.4,0,2.2-0.9,2.2-0.9l-0.1,0.4c0,0.2,0.1,0.3,0.3,0.3h1.4
				c0.2,0,0.4-0.2,0.5-0.4l0.9-5.5C64.6,21.5,64.4,21.3,64.3,21.3 M62.1,24.4c-0.2,0.9-0.9,1.5-1.8,1.5c-0.5,0-0.8-0.1-1.1-0.4
				c-0.2-0.3-0.3-0.7-0.2-1.1c0.1-0.9,0.9-1.5,1.8-1.5c0.5,0,0.8,0.1,1.1,0.4C62,23.6,62.1,24,62.1,24.4"/>
			<path class="st1" d="M49,21.3h-1.6c-0.2,0-0.3,0.1-0.4,0.2l-2.2,3.2l-0.9-3.1c-0.1-0.2-0.2-0.3-0.4-0.3h-1.6
				c-0.2,0-0.3,0.2-0.3,0.4l1.8,5.2l-1.7,2.3c-0.1,0.2,0,0.4,0.2,0.4h1.6c0.2,0,0.3-0.1,0.4-0.2l5.3-7.7
				C49.4,21.6,49.3,21.3,49,21.3"/>
			<path class="st1" d="M66.2,18.5l-1.4,8.7c0,0.2,0.1,0.3,0.3,0.3h1.4c0.2,0,0.4-0.2,0.5-0.4l1.3-8.5c0-0.2-0.1-0.3-0.3-0.3h-1.5
				C66.3,18.2,66.2,18.3,66.2,18.5"/>
			<path class="st1" d="M13.6,23.4h-1h-0.3c-0.2,0-0.3,0.1-0.3,0.3c0,0-0.8,5.2-0.9,5.5c0,0.2,0.1,0.4,0.3,0.4h2.1
				c0.3,0,0.5-0.2,0.6-0.5l0.5-3.1c0-0.3,0.3-0.5,0.6-0.5h0.4c2.3,0,4.1-0.9,4.6-3.6c0.2-1.1,0.1-2.4-0.8-3
				C18.9,20.7,17.9,23.4,13.6,23.4"/>
			<path class="st1" d="M12.3,22.8h1.3c0.7,0,1.3-0.1,1.9-0.2c1.4-0.4,2.4-1.3,2.9-2.8c0.6-1.9,0.3-2.9-0.4-3.7
				c-0.7-0.8-1.9-1.1-3.5-1.1h-4.2c-0.3,0-0.6,0.2-0.6,0.6l-1.9,12c0,0.2,0.1,0.5,0.4,0.5h2.5c0,0,0.7-4.2,0.7-4.4
				C11.4,23.2,11.6,22.8,12.3,22.8"/>
		</g>
	</g>
</g>
</svg>
