<?xml version="1.0" encoding="utf-8"?>
<!-- Generator: Adobe Illustrator 27.5.0, SVG Export Plug-In . SVG Version: 6.00 Build 0)  -->
<svg version="1.1" id="Ebene_1" xmlns="http://www.w3.org/2000/svg" xmlns:xlink="http://www.w3.org/1999/xlink" x="0px" y="0px"
	 viewBox="0 0 76 43" style="enable-background:new 0 0 76 43;" xml:space="preserve">
<style type="text/css">
	.st0{enable-background:new    ;}
	.st1{fill:#AFCA0B;}
	.st2{fill:#1334CB;}
	.st3{fill:#F16022;}
	.st4{fill:#E91D25;}
	.st5{fill:#F69E1E;}
</style>
<g id="hg">
	<rect width="76" height="43"/>
</g>
<g class="st0">
	<path class="st1" d="M13.8,11.4v3.9l0,0l1.8-3.9h1.2l-1.7,3.4l2,5.1h-1.3l-1.4-3.8l-0.7,1.2v2.6h-1.2v-8.5
		C12.5,11.4,13.8,11.4,13.8,11.4z"/>
	<path class="st1" d="M19.9,11.4c1.3,0,2.1,0.8,2.1,2.5c0,1-0.3,1.7-1.1,2.1l1.3,3.9H21l-1.1-3.6h-0.7v3.6H18v-8.5H19.9z M19.1,15.2
		h0.7c0.6,0,1-0.2,1-1c0-0.1,0-0.3,0-0.4c0-0.8-0.1-1.3-1.1-1.3h-0.6V15.2z"/>
	<path class="st1" d="M26.6,11.4v1.2h-2.4V15h2.1v1.2h-2.1v2.5h2.4v1.2H23v-8.5C23,11.4,26.6,11.4,26.6,11.4z"/>
	<path class="st1" d="M29.5,11.4c1.3,0,2.1,0.8,2.1,2.2v4.1c0,1.5-0.8,2.3-2.2,2.3h-1.7v-8.5L29.5,11.4L29.5,11.4z M28.9,18.7h0.5
		c0.9,0,1-0.5,1-1.1v-3.9c0-0.6,0-1.2-1-1.2h-0.5V18.7z"/>
	<path class="st1" d="M34,11.4v8.5h-1.2v-8.5H34z"/>
	<path class="st1" d="M38.9,11.4v1.2h-1.4V20h-1.2v-7.4h-1.4v-1.2C34.9,11.4,38.9,11.4,38.9,11.4z"/>
	<path class="st1" d="M40.9,11.4v3.9l0,0l1.8-3.9H44l-1.7,3.4l2,5.1H43l-1.4-3.8l-0.7,1.2v2.6h-1.2v-8.5
		C39.7,11.4,40.9,11.4,40.9,11.4z"/>
	<path class="st1" d="M47.7,11.4l1.9,8.5h-1.2L48,18.1h-1.7L46,19.9h-1.2l1.9-8.5H47.7z M46.5,16.9h1.2l-0.6-3.1l0,0L46.5,16.9z"/>
	<path class="st1" d="M52.2,11.4c1.3,0,2.1,0.8,2.1,2.5c0,1-0.3,1.7-1.1,2.1l1.3,3.9h-1.3l-1.1-3.6h-0.7v3.6h-1.2v-8.5H52.2z
		 M51.4,15.2h0.7c0.6,0,1-0.2,1-1c0-0.1,0-0.3,0-0.4c0-0.8-0.1-1.3-1.1-1.3h-0.6C51.4,12.5,51.4,15.2,51.4,15.2z"/>
	<path class="st1" d="M58.9,11.4v1.2h-1.4V20h-1.2v-7.4h-1.4v-1.2C54.9,11.4,58.9,11.4,58.9,11.4z"/>
	<path class="st1" d="M63.5,11.4v1.2H61V15h2.1v1.2H61v2.5h2.4v1.2h-3.6v-8.5C59.8,11.4,63.5,11.4,63.5,11.4z"/>
</g>
<g>
	<path class="st2" d="M46.2,25.3l-4,9.6h-2.6l-2-7.7c-0.1-0.5-0.2-0.6-0.6-0.8c-0.6-0.3-1.6-0.6-2.5-0.8l0.1-0.3h4.2
		c0.5,0,1,0.4,1.1,1l1,5.6l2.6-6.5L46.2,25.3L46.2,25.3z M56.5,31.7c0-2.5-3.5-2.7-3.5-3.8c0-0.3,0.3-0.7,1.1-0.8
		c0.4,0,1.3-0.1,2.4,0.4l0.4-2c-0.6-0.2-1.4-0.4-2.3-0.4c-2.5,0-4.2,1.3-4.2,3.2c0,1.4,1.2,2.2,2.2,2.6c1,0.5,1.3,0.8,1.3,1.2
		c0,0.6-0.8,0.9-1.5,0.9c-1.2,0-2-0.3-2.6-0.6l-0.5,2.1c0.6,0.3,1.7,0.5,2.8,0.5C54.8,35,56.5,33.7,56.5,31.7 M63,34.9h2.3l-2-9.6
		h-2.1c-0.5,0-0.9,0.3-1.1,0.7l-3.7,8.9H59l0.5-1.4h3.2L63,34.9z M60.2,31.5l1.3-3.6l0.8,3.6H60.2z M49.7,25.3l-2.1,9.6h-2.5
		l2.1-9.6L49.7,25.3L49.7,25.3z"/>
</g>
<g>
	<g id="logo-for-twitter" transform="translate(1601.000000, 1029.000000)">
		<rect id="Rectangle-path" x="-1581.6" y="-1003.8" class="st3" width="5.6" height="10"/>
		<path id="XMLID_107_" class="st4" d="M-1581.3-998.7c0-2,0.9-3.8,2.4-5c-1-0.8-2.4-1.4-4-1.4c-3.5,0-6.3,2.8-6.3,6.3
			c0,3.5,2.8,6.3,6.3,6.3c1.5,0,2.8-0.5,4-1.4C-1580.3-994.9-1581.3-996.8-1581.3-998.7z"/>
		<path id="Shape" class="st5" d="M-1568.6-998.7c0,3.5-2.8,6.3-6.3,6.3c-1.5,0-2.8-0.5-4-1.4c1.5-1.2,2.4-2.9,2.4-5
			c0-2-0.9-3.8-2.4-5c1-0.8,2.4-1.4,4-1.4C-1571.4-1005-1568.6-1002.2-1568.6-998.7z"/>
	</g>
</g>
</svg>
