<?xml version="1.0" encoding="utf-8"?>
<!-- Generator: Adobe Illustrator 27.4.1, SVG Export Plug-In . SVG Version: 6.00 Build 0)  -->
<svg version="1.1" id="Ebene_1" xmlns="http://www.w3.org/2000/svg" xmlns:xlink="http://www.w3.org/1999/xlink" x="0px" y="0px"
	 viewBox="0 0 76 43" style="enable-background:new 0 0 76 43;" xml:space="preserve">
<style type="text/css">
	.st0{enable-background:new    ;}
	.st1{fill:#AFCA0B;}
	.st2{fill:#FFFFFF;}
</style>
<g id="hg">
	<rect y="0" width="76" height="43"/>
</g>
<g class="st0">
	<path class="st1" d="M20.3,11.4c1.3,0,2.1,0.8,2.1,2.5c0,1-0.3,1.7-1.1,2.1l1.3,3.9h-1.3l-1.1-3.6h-0.7v3.6h-1.2v-8.5H20.3z
		 M19.7,15.2h0.7c0.6,0,1-0.2,1-1c0-0.1,0-0.3,0-0.4c0-0.8-0.1-1.3-1.1-1.3h-0.6V15.2z"/>
	<path class="st1" d="M27.2,11.4v1.2h-2.4V15h2.1v1.2h-2.1v2.5h2.4v1.2h-3.6v-8.5C23.5,11.4,27.2,11.4,27.2,11.4z"/>
	<path class="st1" d="M30.8,13.8v-0.3c0-0.8-0.5-1-0.8-1c-0.7,0-0.8,0.5-0.8,1v4.4c0,0.4,0.2,0.8,0.7,0.8c0.2,0,0.8-0.1,0.8-0.9
		v-0.4h1.2V18c0,1.1-0.9,2-1.9,2c-1.3,0-2-0.8-2-2v-4.8c0-1.1,0.8-1.9,2-1.9c0.6,0,1.1,0.3,1.4,0.6c0.3,0.4,0.6,0.8,0.6,1.6v0.4
		h-1.2V13.8z"/>
	<path class="st1" d="M34,11.4V15h1.5v-3.7h1.2v8.5h-1.2V16H34v3.8h-1.2v-8.5H34V11.4z"/>
	<path class="st1" d="M39,11.4l1.8,5.1l0,0v-5.1H42v8.5h-1.2l-1.9-5.1l0,0v5.1h-1.2v-8.5H39z"/>
	<path class="st1" d="M44.5,11.4v6.5c0,0.5,0.3,0.9,0.8,0.9s0.8-0.3,0.8-0.9v-6.5h1.2V18c0,1.1-0.9,2-2,2s-2-0.9-2-2v-6.6H44.5z"/>
	<path class="st1" d="M49.5,11.4l1.8,5.1l0,0v-5.1h1.2v8.5h-1.2l-1.9-5.1l0,0v5.1h-1.2v-8.5H49.5z"/>
	<path class="st1" d="M56.5,13.8v-0.4c0-0.8-0.5-0.9-0.8-0.9c-0.5,0-0.8,0.3-0.8,0.8v4.6c0,0.5,0.4,0.8,0.8,0.8s0.8-0.3,0.8-0.8
		v-1.6h-1v-1.1h2.2v2.7c0,1.2-0.9,2-2.1,2c-1.1,0-2.1-0.8-2.1-2v-4.6c0-1.2,0.9-2,2.1-2c0.8,0,2.1,0.5,2.1,2.1v0.4
		C57.7,13.8,56.5,13.8,56.5,13.8z"/>
</g>
<path class="st2" d="M68.5,25.8l-2.9,3.8v3.1H64v-3.1l-2.9-3.8h2l1.7,2.3l1.7-2.3C66.6,25.8,68.5,25.8,68.5,25.8z M52.5,25.8v1.4H55
	v5.5h1.6v-5.5h2.5v-1.4L52.5,25.8L52.5,25.8z M44.7,27.1H47c0.7,0,1,0.3,1,0.8s-0.3,0.8-1,0.8h-2.3V27.1L44.7,27.1z M49.9,32.6
	L48.1,30c1-0.3,1.5-1,1.5-2c0-1.4-0.8-2.2-2.4-2.2h-4.1v6.8h1.6v-2.5h1.7l1.7,2.5H49.9L49.9,32.6L49.9,32.6z M32.6,25.8v6.8h6.2
	v-1.4h-4.6v-1.4h4v-1.4h-4V27h4.6v-1.4L32.6,25.8L32.6,25.8L32.6,25.8z M27.7,25.8l-2,5.1l-2-5.1h-1.8l2.9,6.8h1.6l2.9-6.8H27.7
	L27.7,25.8z M17,32.6h1.6v-6.8H17V32.6L17,32.6z M7.5,32.6h1.6v-5.3H7.5V32.6z M9.1,27.3h5.3v-1.6H9.1V27.3L9.1,27.3z"/>
</svg>
