<?xml version="1.0" encoding="utf-8"?>
<!-- Generator: Adobe Illustrator 27.4.1, SVG Export Plug-In . SVG Version: 6.00 Build 0)  -->
<svg version="1.1" id="Ebene_1" xmlns="http://www.w3.org/2000/svg" xmlns:xlink="http://www.w3.org/1999/xlink" x="0px" y="0px"
	 viewBox="0 0 76 43" style="enable-background:new 0 0 76 43;" xml:space="preserve">
<style type="text/css">
	.st0{fill:#FFFFFF;}
	.st1{enable-background:new    ;}
	.st2{fill:#AFCA0B;}
</style>
<g id="hg">
	<rect y="0" width="76" height="43"/>
</g>
<g id="text-logo">
	<path class="st0" d="M68.5,25.8l-2.9,3.8v3.1h-1.6v-3.1l-2.9-3.8h2l1.7,2.3l1.7-2.3C66.6,25.8,68.5,25.8,68.5,25.8z M52.5,25.8v1.4
		H55v5.5h1.6v-5.5h2.5v-1.4H52.5L52.5,25.8z M44.6,27.1H47c0.7,0,1,0.3,1,0.8s-0.3,0.8-1,0.8h-2.3L44.6,27.1L44.6,27.1z M49.9,32.6
		L48.1,30c1-0.3,1.5-1,1.5-2c0-1.4-0.8-2.2-2.4-2.2h-4.1v6.8h1.6v-2.5h1.7l1.7,2.5H49.9L49.9,32.6L49.9,32.6z M32.6,25.8v6.8h6.2
		v-1.4h-4.6v-1.4h4v-1.4h-4v-1.4h4.6v-1.4L32.6,25.8L32.6,25.8L32.6,25.8z M27.6,25.8l-2,5.1l-2-5.1h-1.7l2.9,6.8h1.6l2.9-6.8H27.6
		L27.6,25.8z M17,32.6h1.6v-6.8H17V32.6L17,32.6z M7.5,32.6h1.6v-5.3H7.5C7.5,27.3,7.5,32.6,7.5,32.6z M9.1,27.3h5.3v-1.6H9.1V27.3
		L9.1,27.3z"/>
</g>
<g class="st1">
	<path class="st2" d="M14.2,11.4v7.3h2.4v1.2H13v-8.5H14.2z"/>
	<path class="st2" d="M20.3,11.4l1.9,8.5H21l-0.4-1.8h-1.7l-0.4,1.8h-1.2l1.9-8.5H20.3z M19.2,16.9h1.2l-0.6-3.1h0L19.2,16.9z"/>
	<path class="st2" d="M25.8,13.8v-0.2c0-0.8-0.4-1.1-0.9-1.1c-0.5,0-0.8,0.3-0.8,1.1c0,0.8,0.1,0.9,0.8,1.2c0.3,0.1,0.6,0.3,0.9,0.3
		c1.1,0.4,1.2,1.2,1.2,2.3c0,1.7-0.8,2.5-2.1,2.5c-0.9,0-2.1-0.5-2.1-2.1v-0.4H24v0.4c0,0.4,0.2,0.9,0.9,0.9c0.4,0,0.7-0.1,0.8-0.5
		c0.1-0.2,0.1-0.5,0.1-0.7c0-0.8-0.1-1-0.5-1.2c-0.3-0.1-0.8-0.3-1.3-0.5c-0.8-0.4-1.1-1-1.1-2.1c0-1.4,0.8-2.3,2.1-2.3
		c0.4,0,0.9,0.1,1.2,0.4c0.6,0.5,0.8,1.1,0.8,1.6v0.6H25.8z"/>
	<path class="st2" d="M31.6,11.4v1.2h-1.4v7.4H29v-7.4h-1.4v-1.2H31.6z"/>
	<path class="st2" d="M35.1,13.8v-0.2c0-0.8-0.4-1.1-0.9-1.1c-0.5,0-0.8,0.3-0.8,1.1c0,0.8,0.1,0.9,0.8,1.2c0.3,0.1,0.6,0.3,0.9,0.3
		c1.1,0.4,1.2,1.2,1.2,2.3c0,1.7-0.8,2.5-2.1,2.5c-0.9,0-2.1-0.5-2.1-2.1v-0.4h1.2v0.4c0,0.4,0.2,0.9,0.9,0.9c0.4,0,0.7-0.1,0.8-0.5
		c0.1-0.2,0.1-0.5,0.1-0.7c0-0.8-0.1-1-0.5-1.2c-0.3-0.1-0.8-0.3-1.3-0.5c-0.8-0.4-1.1-1-1.1-2.1c0-1.4,0.8-2.3,2.1-2.3
		c0.4,0,0.9,0.1,1.2,0.4c0.6,0.5,0.8,1.1,0.8,1.6v0.6H35.1z"/>
	<path class="st2" d="M39.9,13.8v-0.3c0-0.8-0.5-1-0.8-1c-0.7,0-0.8,0.5-0.8,1v4.4c0,0.4,0.2,0.8,0.7,0.8c0.2,0,0.8-0.1,0.8-0.9
		v-0.4h1.2V18c0,1.1-0.9,2-1.9,2c-1.3,0-2-0.8-2-2v-4.8c0-1.1,0.8-1.9,2-1.9c0.6,0,1.1,0.3,1.4,0.6c0.3,0.4,0.6,0.8,0.6,1.6v0.4
		H39.9z"/>
	<path class="st2" d="M43.4,11.4V15h1.5v-3.7h1.2v8.5h-1.2v-3.8h-1.5v3.8h-1.2v-8.5H43.4z"/>
	<path class="st2" d="M49.3,11.4c1.3,0,2.1,0.8,2.1,2.5c0,1-0.3,1.7-1.1,2.1l1.3,3.9h-1.3l-1.1-3.6h-0.7v3.6h-1.2v-8.5H49.3z
		 M48.5,15.2h0.7c0.6,0,1-0.2,1-1c0-0.1,0-0.3,0-0.4c0-0.8-0.1-1.3-1.1-1.3h-0.6V15.2z"/>
	<path class="st2" d="M53.7,11.4v8.5h-1.2v-8.5H53.7z"/>
	<path class="st2" d="M58.5,11.4v1.2h-2.4v2.6h2.1v1.2h-2.1v3.6h-1.2v-8.5H58.5z"/>
	<path class="st2" d="M63,11.4v1.2h-1.4v7.4h-1.2v-7.4H59v-1.2H63z"/>
</g>
</svg>
