<?xml version="1.0" encoding="utf-8"?>
<!-- Generator: Adobe Illustrator 27.4.1, SVG Export Plug-In . SVG Version: 6.00 Build 0)  -->
<svg version="1.1" id="Ebene_1" xmlns="http://www.w3.org/2000/svg" xmlns:xlink="http://www.w3.org/1999/xlink" x="0px" y="0px"
	 viewBox="0 0 76 43" style="enable-background:new 0 0 76 43;" xml:space="preserve">
<style type="text/css">
	.st0{enable-background:new    ;}
	.st1{fill:#AFCA0B;}
</style>
<g id="hg">
	<rect y="0" width="76" height="43"/>
</g>
<g id="text-logo">
	<g class="st0">
		<path class="st1" d="M16,16.5l1.1,7l0,0l1.1-7h1.5l-2,10h-1.3l-2-10H16z"/>
		<path class="st1" d="M25.2,24.2c0,1.4-1.1,2.4-2.4,2.4s-2.4-1-2.4-2.4v-5.4c0-1.4,1.1-2.4,2.4-2.4s2.4,1,2.4,2.4V24.2z M21.8,24.1
			c0,0.6,0.4,1,1,1c0.5,0,1-0.4,1-1v-5.3c0-0.6-0.4-1-1-1c-0.5,0-1,0.4-1,1V24.1z"/>
		<path class="st1" d="M28.8,16.5c1.6,0,2.5,0.9,2.5,2.9c0,1.2-0.3,2-1.2,2.5l1.5,4.6h-1.5l-1.3-4.3h-0.9v4.3h-1.4v-10H28.8z
			 M27.9,21h0.8c0.7,0,1.1-0.2,1.2-1.1c0-0.1,0-0.3,0-0.4c0-0.9-0.1-1.5-1.2-1.5H28L27.9,21L27.9,21z"/>
		<path class="st1" d="M34.2,16.5v4.6l0,0l2.1-4.6h1.4l-1.9,4l2.3,6h-1.5L35,22l-0.8,1.5v3h-1.4v-10H34.2z"/>
		<path class="st1" d="M42.4,16.5l2.2,10h-1.4l-0.4-2.1h-1.9l-0.5,2.1H39l2.2-10H42.4z M41.1,23h1.4l-0.7-3.6l0,0L41.1,23z"/>
		<path class="st1" d="M48.8,19.4v-0.3c0-0.9-0.4-1.3-1-1.3s-1,0.4-1,1.3s0.2,1.1,1,1.4c0.3,0.1,0.8,0.3,1,0.4
			c1.3,0.5,1.4,1.3,1.4,2.7c0,2-0.9,2.9-2.5,2.9c-1,0-2.4-0.6-2.4-2.5v-0.4h1.4v0.5c0,0.5,0.3,1,1,1c0.5,0,0.8-0.1,1-0.6
			c0.1-0.3,0.1-0.6,0.1-0.9c0-0.9-0.1-1.2-0.6-1.4c-0.4-0.2-1-0.4-1.5-0.6c-0.9-0.4-1.3-1.2-1.3-2.5c0-1.6,0.9-2.7,2.5-2.7
			c0.5,0,1.1,0.2,1.5,0.5c0.7,0.6,0.9,1.2,0.9,1.8v0.6h-1.5V19.4z"/>
		<path class="st1" d="M54.8,19.4v-0.3c0-0.9-0.4-1.3-1-1.3s-1,0.4-1,1.3s0.2,1.1,1,1.4c0.3,0.1,0.8,0.3,1,0.4
			c1.3,0.5,1.4,1.3,1.4,2.7c0,2-0.9,2.9-2.5,2.9c-1,0-2.4-0.6-2.4-2.5v-0.4h1.4v0.5c0,0.5,0.3,1,1,1c0.5,0,0.8-0.1,1-0.6
			c0.1-0.3,0.1-0.6,0.1-0.9c0-0.9-0.1-1.2-0.6-1.4c-0.4-0.2-1-0.4-1.5-0.6c-0.9-0.4-1.3-1.2-1.3-2.5c0-1.6,0.9-2.7,2.5-2.7
			c0.5,0,1.1,0.2,1.5,0.5c0.7,0.6,0.9,1.2,0.9,1.8v0.6h-1.5V19.4z"/>
		<path class="st1" d="M61.6,16.5v1.3h-2.8v2.9h2.5V22h-2.5v2.9h2.8v1.6h-4.3v-10H61.6z"/>
	</g>
</g>
</svg>
