<?xml version="1.0" encoding="utf-8"?>
<!-- Generator: Adobe Illustrator 27.5.0, SVG Export Plug-In . SVG Version: 6.00 Build 0)  -->
<svg version="1.1" id="tier" xmlns="http://www.w3.org/2000/svg" xmlns:xlink="http://www.w3.org/1999/xlink" x="0px" y="0px"
	 viewBox="0 0 144 144" style="enable-background:new 0 0 144 144;" xml:space="preserve">
<g>
	<path d="M131.4,49.3c-2.1-2.1-3.6-4.8-4.8-7.6c-0.4-0.8-0.8-1.7-1.3-2.4c-4.2-5.2-9.7-7.7-16.3-6.8c-3.3,0.4-6.5,1.3-10,0.5
		c-1.7-0.4-3.3-0.9-5-1.6c0.9-1.2,2-2.5,2.9-3.8l4.6,0.5c0.1,0,0.1,0,0.3,0c0.8,0,1.6-0.7,1.7-1.5c0.1-0.9-0.5-1.7-1.5-1.9l-2.8-0.4
		c1.1-1.6,1.9-2.7,2.1-3.1l0.1-0.1c0.1,0,0-0.1,0.1-0.3l0.1-0.3l0,0c0.3-0.7,0.4-1.3-0.1-1.9c-0.3-0.4-0.7-0.5-1.2-0.5
		c-0.1,0-0.3,0.1-0.4,0.1l-0.1-0.1l-0.5,0.4v0.4h-0.1l-0.3,0.3c-0.5,0.4-1.2,0.9-2.3,1.7l0.3-2c0-0.4,0-0.9-0.3-1.2
		c-0.3-0.4-0.7-0.5-1.1-0.7c-0.4,0-0.9,0-1.2,0.3c-0.4,0.3-0.5,0.7-0.7,1.1l-0.8,5.3c-2.4,1.7-4.8,3.7-6.6,5.3
		c-0.1,0-0.3-0.1-0.4-0.1c-1.1-0.3-2.1-0.5-3.1-0.7c-7.3-1.3-14.2-0.1-20.8,2.9c-8,3.6-14.6,9-20.3,15.7c-1.3,1.6-2.7,3.3-3.8,5
		c-0.8,1.3-2,3.6-3.2,6.4c-2.7,1.1-8.4,3.6-10.5,6.1c-1.5,1.6-4.2,5.8-6.6,9.6l-5.3,1.2c-0.4,0.1-0.8,0.4-1.1,0.8s-0.3,0.8-0.3,1.2
		c0.1,0.4,0.4,0.8,0.8,1.1c0.3,0.1,0.5,0.3,0.9,0.3c0.1,0,0.3,0,0.4,0l2-0.7c-0.7,1.1-1.2,1.9-1.5,2.4l-0.3,0.3v0.1L13,80.8
		l-0.3,0.5l0.1,0.1c0,0.5,0,1.1,0.5,1.5l0,0c0.3,0.3,0.7,0.4,1.1,0.4c0.5,0,1.1-0.3,1.3-0.7l0.1-0.1c0.4-0.3,1.5-1.2,2.9-2.4
		l0.5,2.8c0.1,0.8,0.9,1.3,1.6,1.3c0.1,0,0.3,0,0.4,0c0.4-0.1,0.8-0.4,1.1-0.7c0.3-0.4,0.3-0.8,0.3-1.3l-0.9-4.5
		c2.8-2.4,5.8-4.9,6.9-6.2c0.5,0,1.5,0.1,2.7,0.1c-0.1,1.6-0.3,3.2-0.3,4.8l0,0c0,0.7,0,1.2,0,1.9c0.3,3.1,1.2,10.2,1.9,12.5
		c6,20.8,25.1,36.2,47.9,36.2c27.5,0,49.8-22.3,49.8-49.8c0-1.2,0-2.4-0.1-3.6c0,0,0-1.1,0-1.7c0-1.6-1.3-2.9-2.9-2.9
		s-2.9,1.3-2.9,2.9c0,0.7,0,1.7,0,1.7c0,0.5,0,1.2,0,1.9c0,19.2-21.2,39.5-40.3,37.8c-28.1-2.5-29.5-28.9-29.2-33.7l0,0
		c0,0,0,0,0-0.1c0-0.4,0-0.7,0.1-0.7l0,0c0.1-1.1,0.5-2.3,1.1-3.2c0.7,1.3,1.3,2.5,2,3.5c1.5,1.6,5.2,4.9,8.5,7.8l0.4,5.4
		c0.1,0.9,0.8,1.6,1.7,1.6h0.1c0.9-0.1,1.6-0.9,1.6-1.9l-0.1-2c0.9,0.8,1.6,1.3,2.1,1.7L73,92h0.1l0.1,0.1l0.4,0.4l0.1-0.1
		c0.1,0,0.3,0.1,0.4,0.1c0.4,0,0.8-0.1,1.2-0.5c0.3-0.3,0.5-0.8,0.5-1.2c0-0.3-0.1-0.5-0.3-0.7l0,0l-0.1-0.3c0-0.1,0-0.1-0.1-0.3
		l-0.1-0.1c-0.3-0.4-0.9-1.6-1.9-3.2l2.9-0.1c0.4,0,0.9-0.3,1.2-0.5c0.3-0.4,0.4-0.8,0.4-1.2c0-0.4-0.3-0.8-0.5-1.2
		c-0.4-0.3-0.8-0.4-1.2-0.4l-4.6,0.3c-2-3.2-4.1-6.4-5.3-7.6c0.3-1.5,1.3-7.2,0.3-10.1c2.7-1.7,4.6-2.7,4.6-2.7c0.1,0,0.1,0,0.3-0.1
		c0.4-0.3,0.9-0.4,1.5-0.7c1.3-0.5,2.5-1.1,3.7-1.6c1.6,2.8,4.4,7.2,6.9,8.9c1.9,1.2,6.2,3.5,10.2,5.4l1.7,5.2
		c0.1,0.4,0.4,0.8,0.8,0.9c-0.3-0.4,0-0.4,0.3-0.4c0.1,0,0.4,0,0.5-0.1c0.9-0.3,1.3-1.2,1.1-2.1l-0.7-2c1.1,0.5,2,0.9,2.5,1.2
		l0.3,0.1c0.1,0,0.1,0,0.3,0l0,0l0.5,0.3v-0.1l0,0c0.5,0,1.1-0.3,1.5-0.8c0.5-0.8,0.3-1.9-0.5-2.3l-0.1-0.1
		c-0.4-0.4-1.3-1.3-2.7-2.5L102,71c0.4-0.1,0.8-0.4,0.9-0.8c0.3-0.4,0.3-0.8,0.1-1.3c-0.1-0.4-0.4-0.8-0.8-0.9s-0.8-0.3-1.3-0.1
		l-4.4,1.5c-2.7-2.5-5.6-5.2-7-6c0-1.2-0.4-4.9-1.3-7.7c1.6-0.4,2.9-0.8,4-0.9c0.1,0,0.1,0,0.3-0.1c0.1,0,0.3,0,0.4,0
		c1.1-0.3,1.7-0.3,1.7-0.3l0,0c2.7-0.1,5.2,0.5,7.4,2.3c2.8,2.1,6,3.2,9.3,3.6c2.5,0.3,5,0.5,7.6-0.5c2.5-1.1,5-1.5,7.7-0.8
		c2.1,0.5,4.9-1.1,6-3.2C133.6,53.4,133.2,51.1,131.4,49.3 M88.6,43.4c-15.4-1.3-24,3.2-24.2,3.3c-14.2,8.7-17,21.2-17,21.3
		c0,0.4-0.4,0.7-0.9,0.7c-0.4,0-0.7-0.4-0.7-0.9c0.4-2.8,3.1-17.4,16.7-24.4c0.1,0,5.7-3.2,14.5-3.2c3.6,0,7.7,0.5,12.1,2
		c0.4,0.1,0.7,0.5,0.5,0.9C89.4,43.4,88.8,43.4,88.6,43.4 M116.9,53.5c-1.5,0-2.5-1.2-2.5-2.5c0-1.5,1.2-2.5,2.5-2.5
		c1.5,0,2.5,1.2,2.5,2.5C119.4,52.5,118.2,53.5,116.9,53.5"/>
</g>
</svg>
