<?xml version="1.0" encoding="UTF-8"?>
<svg id="Ebene_1" data-name="Ebene 1" xmlns="http://www.w3.org/2000/svg" viewBox="0 0 144 144">
  <defs>
    <style>
      .cls-1 {
        fill: #1d1d1b;
      }
    </style>
  </defs>
  <path class="cls-1" d="M72.29,100.44s-8.76,.76-8,8.22c0,0,3.24,5.19,6.92,6.81h1.95s2.92-.75,7.02-6.81c0,0,1.73-6.7-7.89-8.22"/>
  <path class="cls-1" d="M108.66,97.1l2.54-6.41-4.54,.35s.46-9.02-3.94-19.69c3.74-4.96,6.17-10.17,6.17-10.17,3.91-7.54,5.12-18.81,5.39-36.96,.29-18.16-4.56-18.25-4.56-18.25-2.98-1.3-4.28,2.33-4.28,3.54s-2.6,6.89-4.94,8.76c-2.32,1.86-10.52,17.03-10.52,17.03l-6.83,14.02c-9.28-1.97-16.92-1.11-21.37-.17l-6.75-13.86s-8.19-15.18-10.52-17.03c-2.32-1.86-4.93-7.54-4.93-8.76s-1.3-4.84-4.28-3.54c0,0-4.84,.09-4.56,18.25,.28,18.16,1.49,29.42,5.4,36.96,0,0,2.12,4.96,5.57,9.73-3.21,5.68-6.19,12.97-5.5,19.77l-4.83-.7,3.16,6.18-5.3-1.66s3.2,34.85,43.3,35.98c9.82-.29,35.02-5.37,42.22-35.5l-6.11,2.13Zm-56.64-3.24c-1.99-1.37-2.9-3.38-2.9-3.38-1.34-3.04,1.18-4.62,1.18-4.62,4.32-3.22,8.08-1.55,8.08-1.55,4.31,1.35,4.17,5.75,4.17,5.75-.12,2.2-1.48,3.43-2.84,4.13,.16-.44,.28-.9,.28-1.39,0-2.27-1.83-4.1-4.1-4.1s-4.1,1.83-4.1,4.1c0,.38,.12,.72,.21,1.06m28.54,27.17c-3.67,0-6.81-1.95-8.26-4.73h-.05c-1.46,2.79-4.6,4.73-8.26,4.73-5.05,0-9.15-3.67-9.15-8.19s3.72-7.8,8.43-8.13c5.45-9.42,6.64-15.3,3.1-28.37h0l-.53-1.92c-.26-.91-.53-1.83-.84-2.81-.04-.12-4.24-13.41-4.24-13.41,4.23-2.12,8.17-2.8,11.55-2.74h0c3.37-.04,7.29,.63,11.49,2.75,0,0-4.2,13.29-4.24,13.41-.31,.98-.58,1.9-.84,2.81l-.53,1.92c-3.55,13.07-2.35,18.96,3.1,28.37,4.71,.33,8.43,3.82,8.43,8.13,0,4.53-4.1,8.2-9.15,8.2m14.63-30.56s-.69,2.13-2.75,3.57c.13-.4,.25-.8,.25-1.24,0-2.27-1.83-4.1-4.1-4.1s-4.1,1.83-4.1,4.1c0,.63,.17,1.21,.43,1.74-1.4-.65-2.87-1.86-3.21-4.12,0,0-.26-4.4,4.02-5.87,0,0,3.72-1.78,8.14,1.33,0,0,2.57,1.51,1.31,4.59"/>
</svg>