<?xml version="1.0" encoding="UTF-8"?>
<svg id="Ebene_1" data-name="Ebene 1" xmlns="http://www.w3.org/2000/svg" viewBox="0 0 144 144">
  <defs>
    <style>
      .cls-1 {
        fill: #1d1d1b;
      }
    </style>
  </defs>
  <path class="cls-1" d="M82.93,94.07c-2.32-4.31-19.55-4.31-21.87,0-.16,.3-.3,.68-.42,1.08-.78,2.75,.04,5.71,1.94,7.84,2.21,2.5,4.82,5.33,6.2,6.35,1.39,1.02,3.81,2.29,6.41,0,2.6-2.29,3.99-3.84,6.21-6.35,1.9-2.14,2.72-5.09,1.93-7.84-.11-.41-.25-.78-.41-1.08"/>
  <path class="cls-1" d="M139.21,55.54c-2.6-5.48-6.5-7.25-10.64-9.13-3.09-1.4-6.59-2.99-10.67-6.54-2.09-1.83-3.3-3.33-4.37-4.65-1.7-2.11-3.31-4.11-7.08-5.65-4.97-2.03-11.41-2.24-15-.49-.15,.08-.28,.15-.42,.23-.36-.18-.76-.31-1.13-.48-2.94-2.11-6.08-3.77-9.33-4.84-2.59-.96-5.35-1.53-8.32-1.53-.09,0-.18,.02-.27,.02-.09,0-.18-.02-.26-.02-2.97,0-5.73,.57-8.31,1.53-3.25,1.08-6.39,2.73-9.34,4.85-.37,.16-.77,.29-1.13,.47-.14-.08-.27-.16-.42-.23-3.58-1.75-10.03-1.54-14.99,.49-3.78,1.54-5.39,3.54-7.08,5.65-1.07,1.32-2.28,2.82-4.37,4.65-4.07,3.55-7.58,5.14-10.67,6.54-4.14,1.88-8.04,3.65-10.64,9.13-1.63,3.44-1.84,6.71-1.73,8.85,.41,7.82,4.65,13.4,9.18,18.27,1.01,1.09,1.83,1.96,2.52,2.67,2.6,2.75,2.81,2.97,3.99,5.36,1.36,2.79,1.86,5.43,2.24,7.37,.45,2.37,.96,5.06,3.67,5.66,.24,.06,.52,.1,.83,.1,.74,0,1.64-.21,2.62-.91,2.86-2.05,5.58-7.98,6.27-13.61,.11,.43,1.36-14.24,1.69-14.45,.1-.07,.33-.56,.62-1.29,7.14,45.58,23.32,54.09,35.3,48.2,11.99,5.88,28.17-2.62,35.3-48.21,.3,.73,.52,1.23,.63,1.3,.32,.21,1.56,14.88,1.68,14.45,.7,5.63,3.41,11.56,6.27,13.61,.97,.7,1.88,.91,2.62,.91,.31,0,.59-.04,.84-.1,2.71-.6,3.22-3.28,3.67-5.66,.37-1.93,.88-4.58,2.24-7.37,1.17-2.39,1.38-2.61,3.99-5.36,.69-.71,1.5-1.58,2.52-2.67,4.52-4.87,8.77-10.45,9.18-18.27,.12-2.14-.09-5.41-1.72-8.85m-87.95,10.15c-2.72,0-4.91,2.2-4.91,4.91,0,.42,.14,.8,.24,1.19-2.35-1.63-3.46-3.97-3.46-3.97-1.6-3.65,1.42-5.53,1.42-5.53,5.18-3.87,9.7-1.86,9.7-1.86,5.17,1.61,5,6.89,5,6.89-.14,2.63-1.77,4.11-3.4,4.94,.19-.52,.34-1.07,.34-1.67,0-2.71-2.2-4.91-4.91-4.91m28.49,52.3c-7.55,3.05-17.04,1.24-21.55-4.12-4.81-5.72-4.99-14.33-.15-21.7,9.49-14.47,11.53-23.53,7.55-39.98-1.07-4.67,2.98-8.17,6.6-10.99-.21-.17,8.34,5.66,6.55,11.48-5.12,17.87-2.56,25.03,7.81,40.94,6,9.2,2.31,20.65-6.82,24.36m19.98-50.39s-.83,2.56-3.29,4.27c.15-.48,.3-.96,.3-1.49,0-2.72-2.2-4.91-4.91-4.91s-4.91,2.2-4.91,4.91c0,.76,.2,1.45,.51,2.1-1.67-.78-3.45-2.23-3.86-4.94,0,0-.31-5.28,4.83-7.04,0,0,3.14-1.45,7.26,.24-.02-.04-.03-.08-.05-.11,.09,.05,.16,.13,.25,.19,.75,.33,1.51,.72,2.3,1.27,0,0,3.08,1.81,1.57,5.51"/>
</svg>