<?xml version="1.0" encoding="UTF-8"?>
<svg id="Ebene_1" data-name="Ebene 1" xmlns="http://www.w3.org/2000/svg" viewBox="0 0 144 144">
  <defs>
    <style>
      .cls-1 {
        fill: #1d1d1b;
      }
    </style>
  </defs>
  <path class="cls-1" d="M32.3,81.59s1.83,7.1,11.66,10.53l-4.12-17.16-7.55,6.63Z"/>
  <path class="cls-1" d="M35.19,73.12s5.51-2.43,5.2-9.73c-1.75-.26-3.32-.58-4.81-.93-.34-.08-.68-.15-1-.23-1.39-.35-2.67-.72-3.82-1.12-.26-.09-.49-.18-.74-.27-.87-.32-1.67-.64-2.41-.97-.34-.15-.69-.3-1.01-.45-.85-.41-1.66-.82-2.32-1.21-1.93,5.21-4.94,17.26,4.18,26.07,0,0-.39-8.85,6.73-11.16"/>
  <path class="cls-1" d="M34.81,43.11s-10.03-2.51-9.46,11.44c2.58,1.66,7.52,3.99,15.49,5.17,1.5-3.79,4.35-13.82-6.03-16.61m-1.11,8.03c-1.59-.35-2.69-1.49-2.46-2.56,.24-1.06,1.72-1.63,3.31-1.28s2.69,1.5,2.46,2.56c-.24,1.06-1.72,1.64-3.31,1.28"/>
  <path class="cls-1" d="M64.41,46.82c-1.75,0-3.16,1.42-3.16,3.17s1.42,3.17,3.16,3.17,3.17-1.42,3.17-3.17-1.42-3.17-3.17-3.17"/>
  <path class="cls-1" d="M118.4,92.18c.29-2.43,.87-4.85,1.5-7.21,1.68-6.31,2.26-12.66,1.61-19.03-.56,1.03-1.2,2.1-2.02,3.2-1.87,2.52-4.17,4.77-6.84,6.66-.19,.13-.4,.2-.59,.2-.27,0-.54-.12-.72-.34-.36-.45-.15-.99,.15-1.31,6.48-7.34,8.3-13.55,8.76-15.54-1.55-6.2-4.07-11.87-7.4-16.85-.48-.63-.96-1.19-1.43-1.79-.34,1.53-1.33,4.93-4.04,8.61-1.67,2.27-3.75,4.29-6.17,6-.17,.12-.36,.18-.55,.18-.26,0-.51-.11-.68-.32-.33-.41-.16-.93,.14-1.23,6.85-7.77,7.95-14.32,8-14.59,.08-.86,.05-1.64,.06-2.44-4.48-4.87-9.16-8.48-13.86-11.06-.04,.4-.01,.78-.08,1.18,0,.02-.45,3.79-3.53,7.96-1.4,1.91-3.15,3.6-5.18,5.04-.16,.11-.33,.17-.5,.17-.23,0-.46-.1-.61-.29-.29-.37-.15-.82,.11-1.11,5.85-6.63,6.69-12.15,6.7-12.2,.08-.81,.06-1.55,.06-2.29-1.74-.81-3.48-1.52-5.2-2.09h0c-1.27-.4-2.54-.76-3.85-1.08v-.02c-17.06-4.03-32.19,2.24-36.03,4.05-3.49,1.76-6.99,3.72-9.66,6.8-5.02,5.78-3.73,7.04,.9,8.47,.01,0,.02,0,.02,.01,15.1,5.38,9.47,20.57,8.22,23.51-.13,.3-.23,.52-.23,.53h0c-5.76,23.81,8.26,30.71,12.54,32.24,.13,.1,.25,.21,.35,.29,3.51,3.16,5.37,7.36,4.78,12.54-.63,5.41-3.82,9.02-8.99,11.78,23.99,5.78,43.13-.78,58.23-19.58,2.41,1.56,4.9,2.96,8.64,2.77-2.88-3.87-3.07-7.82-2.59-11.81m-48.34-4.68c-1.63,.74-8.81-.63-11.4-10.23-.11-.41-.11-.85,.03-1.25,.28-.85,.97-2.11,2.58-1.44,2.34,.98,7.33,2.81,9.86,10.15,0,0,.57,2.03-1.06,2.76m-5.66-29.99c-4.15,0-7.52-3.37-7.52-7.52s3.37-7.52,7.52-7.52,7.52,3.37,7.52,7.52-3.36,7.52-7.52,7.52"/>
</svg>