<?xml version="1.0" encoding="UTF-8"?>
<svg id="Ebene_1" data-name="Ebene 1" xmlns="http://www.w3.org/2000/svg" viewBox="0 0 144 144">
  <defs>
    <style>
      .cls-1 {
        fill: #1d1d1b;
      }
    </style>
  </defs>
  <path class="cls-1" d="M71.66,49.97l-.36,.32c-.96,.87-1.91,1.71-2.82,2.6-4.38,4.22-9.23,9.42-12.1,15.89-.38,.85-.68,1.72-.92,2.59-.83,3.59-.7,7.09,.35,10.55,.84,2.36,2.19,4.49,4.05,6.17,2.74,2.48,6.3,3.76,10.86,3.92,5.73,.17,9.87-1.17,13.15-4.28,.93-.89,1.7-1.95,2.35-3.11,2.4-5.34,2.54-10.75,.38-16.4-3.53-7.47-9.22-13.15-14.94-18.25"/>
  <path class="cls-1" d="M49.68,87.62c2.2,.92,4.26,1.51,6.36,1.78-1.33-2.14-2.26-4.29-2.94-6.46-.03-.09-.07-.19-.1-.29-.15-.5-.29-1.01-.4-1.52-.24-.96-.42-1.94-.51-2.93,0-.07-.02-.14-.03-.21-.21-2.31-.06-4.68,.53-7,.91-4.14,2.88-8.35,6-12.68-10.05-4.15-20.66-5.05-30.76-5.28,.84,5.65,2.33,11.2,4.4,16.41,3.49,8.75,9.19,14.7,17.44,18.19"/>
  <path class="cls-1" d="M111.19,79.7c-.9,1.16-1.85,2.24-2.88,3.24-5.47,5.29-15.57,8.59-22.62,9.42-.21,.02-.42,.03-.63,.03-.14,0-.28,0-.42,0h-2.37c-2.97,1.65-6.43,2.52-10.55,2.52-.36,0-.73,0-1.09-.02-3.71-.13-6.84-.95-9.52-2.44h-2.21s-.12,0-.12,0c-3.41,0-6.76-.71-10.22-2.18-5.82-2.46-10.55-6.19-14.18-11.1-12.13,3.73-19.86,9.2-19.86,15.33,0,11.23,25.74,20.32,57.49,20.32s57.49-9.1,57.49-20.32c0-5.86-7.08-11.1-18.3-14.81"/>
  <path class="cls-1" d="M61.37,56.15c1.68-1.92,3.41-3.73,5.09-5.35,.93-.91,1.91-1.78,2.91-2.67l2.27-2.05,.97,.86c2.64,2.33,5.39,4.92,8.01,7.74,.43,.4,.85,.8,1.28,1.2,2.14-.9,4.46-1.62,6.82-2.26-3.43-9.68-9.87-17.19-17.07-24.45-7.22,7.31-13.76,14.87-17.11,24.65,2.25,.7,4.48,1.49,6.69,2.48,.04-.05,.09-.09,.14-.14"/>
  <path class="cls-1" d="M115.08,65.18c.92-3.04,1.65-6.12,2.41-9.39,.22-.91,.44-1.84,.66-2.78-10.06,.2-23.56,1.05-33.91,5.01,2.23,3.03,3.86,6,5,8.94,.11,.24,.24,.45,.35,.7,2.59,5.78,2.26,12.56-.49,17.79-.55,1.27-1.21,2.52-1.98,3.78,6.58-1.1,14.8-4.15,19.17-8.37,3.89-3.76,6.68-8.74,8.79-15.68"/>
</svg>