<?xml version="1.0" encoding="UTF-8"?>
<svg id="Ebene_1" data-name="Ebene 1" xmlns="http://www.w3.org/2000/svg" viewBox="0 0 144 144">
  <defs>
    <style>
      .cls-1 {
        fill: #1d1d1b;
      }
    </style>
  </defs>
  <path class="cls-1" d="M128.18,21.75c-.51-1.08-1.23-1.94-2.31-2.49-1.55-.8-3.17-.78-4.78-.36-3.05,.81-5.65,2.51-8.11,4.39-3.07,2.35-6.05,4.83-9.02,7.33-2.51,2.12-4.98,4.29-7.38,6.54-2.3,2.15-4.44,4.48-6.49,6.86-.63-.22-1.3-.44-2.09-.65-11.25-4.66-20.73-4.67-32.08-.05-.75,.2-1.41,.4-2.03,.61-1.16-1.35-2.37-2.68-3.64-3.94-2.75-2.72-5.62-5.33-8.5-7.91-2.07-1.85-4.28-3.53-6.39-5.33-2.32-1.98-4.69-3.88-7.29-5.46-2.02-1.23-4.08-2.37-6.51-2.63-2.06-.22-4.43,.52-5.45,2.62-.5,1.02-.94,2.11-1.2,3.23-.73,3.05-.56,6.14-.18,9.23,.51,4.12,1.43,8.15,2.6,12.12,.75,2.56,3.65,16.49,5.77,24.34h-.01s.2,.67,.2,.67c.29,1.07,.57,1.98,.82,2.73l2.51,8.32s.71-9.29,19.79-19.28c1.13-.63,4.8-8.87,11.57-12.59,4.32-1.85,9.2-3.18,14.5-3.14,3.02,.02,5.9,.42,8.66,1.05,.25,.13,.62,.26,1.3,.43,9.09,2.22,13.23,13.44,14.49,14.25,17.64,7.32,19.79,19.28,19.79,19.28l3.7-11.74c1.19-3.24,2.19-7.2,2.57-8.29,.6-1.74,4.57-19.54,5.42-23.16,.84-3.59,1.29-7.24,1.14-10.95-.09-2.09-.47-4.13-1.38-6.04"/>
  <path class="cls-1" d="M100.7,102.16c1.08-.63,2.21-1.19,3.28-1.86,2.37-1.5,4.09-3.6,5.49-6,1.49-2.58,2.42-5.33,2.44-8.88-.11-2.47-.77-5.3-2.64-7.75-1.3-1.71-2.94-3.03-4.73-4.17-3.06-1.94-6.43-3.26-9.74-4.65-1.87-.78-3.8-1.45-5.38-2.76-.31-.26-.59-.63-.73-1.01-1.41-3.92-3.74-7.12-7.28-9.38-2.32-1.48-4.86-2.33-7.6-2.54-4.16-.33-7.97,.68-11.37,3.13-2.84,2.05-4.84,4.77-6.11,8.02-.24,.6-.34,1.31-.92,1.71-.75,.51-1.48,1.07-2.3,1.44-3.15,1.43-6.36,2.74-9.5,4.19-2.59,1.19-4.98,2.7-7.04,4.73-2.36,2.35-3.43,5.23-3.73,8.44-.34,3.79,.89,7.2,2.88,10.34,1.83,2.89,4.28,5.13,7.43,6.57,1.48,.68,2.74,1.68,3.75,3.01,.34,.45,.57,.94,.82,1.42l-15.63,2.99,.59,3.09,16.23-3.1c.02,.06,.04,.11,.06,.17,.18,.71,.42,1.37,.66,2.04l-15.45,5.41,1.04,2.97,15.65-5.47c.42,.83,.91,1.62,1.46,2.37l-14.09,7.89,1.54,2.75,14.71-8.23c.6,.54,1.19,1.1,1.9,1.58,1.88,1.25,3.95,2.04,6.16,2.36,3.2,.46,6.35,.18,9.4-.94,.19-.07,.46-.08,.66,0,1.9,.68,3.87,1.05,5.89,1.14,2.89,.12,5.67-.38,8.26-1.67,1.33-.67,2.51-1.51,3.56-2.49l14.28,7.67,1.5-2.77-13.73-7.38c.28-.39,.64-.7,.89-1.12,.25-.41,.4-.86,.61-1.28l13.68,4.77,1.04-2.97-13.49-4.71c.23-.69,.45-1.39,.63-2.09l13.84,2.71,.61-3.09-13.3-2.61c.86-1.62,2.1-2.96,3.8-3.95m-41.18-11.62c-.22,.27-.76,.98-2.53,1.58,.09-.58,.15-1.18,.15-1.8,0-4.06-2-7.35-4.45-7.35-2.46,0-4.45,3.29-4.45,7.35,0,.33,.03,.65,.05,.97-.66-.49-1.26-1.08-1.79-1.7-1.15-1.34-1.93-2.89-2.27-4.64-.4-2.1,.58-4.09,2.55-4.94,.95-.4,1.96-.68,2.95-.99-.02,.02-.03,.05-.06,.08,6.23-1.44,9.37,2.1,10.3,3.46,.02,.02,.03,.04,.05,.06,.18,.27,.3,.47,.3,.47l-.02,.06c.31,.59,.56,1.22,.7,1.91,.4,2.05,.13,3.45-1.49,5.47m20.89,18.91c.09,1.08-.55,2.31-1.53,2.88-.56,.34-1.18,.49-1.84,.38-.96-.16-1.56-.16-2.03,.11-.19,.4-.51,.75-.9,1.03-.09,.15-.22,.19-.36,.25-.47,.27-.93,.33-1.53,.33s-1.11-.15-1.57-.39c0,0-.31-.18-.32-.2-.38-.27-.69-.62-.89-1.02-.43-.25-.94-.33-1.53-.2-1.09,.24-2.04,.04-2.88-.67-.74-.62-1.2-1.87-.99-2.82,.03,.06,.05-.01,.05-.1,0-1.44,1.34-2.6,3.01-2.6,.15,0,.3,.02,.45,.04,.24-.04,.51-.04,.83,.04,.74,.17,1.47,.42,2.21,.58,1.59,.34,3.14,.12,4.68-.36,.47-.14,.96-.22,1.46-.26,.06,0,.13,0,.2,.01,.17-.03,.33-.04,.51-.04,1.67,0,3.01,1.17,3.01,2.6,0,.15-.03,.29-.05,.42m16.07-18.35c.02-.26,.05-.51,.05-.77,0-4.06-2-7.35-4.45-7.35-2.46,0-4.45,3.29-4.45,7.35,0,.55,.04,1.09,.11,1.61-.7-.27-1.41-.55-2.09-.88-.73-.35-1.09-1.03-1.42-1.68-.98-1.95-1.12-3.93-.15-5.94,.11-.24,.29-.42,.42-.64l-.02-.07s3.02-5.23,9.97-3.77c-.02-.02-.03-.04-.05-.05,.11,.02,.23,.05,.34,.08,.03,0,.05,.02,.09,.02,.29,.06,.58,.12,.86,.21,.8,.26,1.6,.54,2.32,.95,.04,.02,.08,.02,.12,.04v.03c.46,.27,.9,.6,1.27,1.04,.94,1.15,1.19,2.49,.84,3.87-.61,2.44-1.83,4.47-3.78,5.96"/>
</svg>