<?xml version="1.0" encoding="utf-8"?>
<!-- Generator: Adobe Illustrator 27.4.1, SVG Export Plug-In . SVG Version: 6.00 Build 0)  -->
<svg version="1.1" id="services" xmlns="http://www.w3.org/2000/svg" xmlns:xlink="http://www.w3.org/1999/xlink" x="0px" y="0px"
	 viewBox="0 0 144 144" style="enable-background:new 0 0 144 144;" xml:space="preserve">
<g>
	<path d="M72,26.8c-24.9,0-45.2,20.3-45.2,45.2c0,24.9,20.3,45.2,45.2,45.2c24.9,0,45.2-20.3,45.2-45.2
		C117.2,47.1,96.9,26.8,72,26.8z M60.2,51.9c0-3.2,2.3-5.6,6-5.6c3.8,0,6,2.3,6,5.7v4.9c0,2.9-2.3,5.2-6,5.2c-3.8,0-6-2.3-6-5.2
		V51.9z M61,97.2l17.3-50.5H83L65.7,97.2H61z M83.8,92.4c0,2.9-2.3,5.2-6,5.2c-3.8,0-6-2.3-6-5.2v-5c0-3.2,2.3-5.6,6-5.6
		c3.8,0,6,2.3,6,5.7V92.4z"/>
	<path d="M77.8,86.1c-0.9,0-1.8,0.8-1.8,1.9v3.3c0,1.6,1.1,2.1,1.8,2.1c0.9,0,1.8-0.8,1.8-1.8v-3.4C79.6,87.2,79,86.1,77.8,86.1z"/>
	<path d="M66.2,57.9c0.9,0,1.8-0.8,1.8-1.8v-3.5c0-1.6-1.2-2-1.8-2c-0.9,0-1.8,0.8-1.8,1.9v3.4C64.4,57.5,65.8,57.9,66.2,57.9z"/>
</g>
</svg>
