<?xml version="1.0" encoding="UTF-8"?>
<svg id="tier" xmlns="http://www.w3.org/2000/svg" viewBox="0 0 144 144">
  <path d="m72,9.56c-25.37,0-47.93,19.36-47.93,43.23,0,21.41,38.93,69.9,46.56,80.93.66.96,2.07.96,2.74,0,7.63-11.03,46.56-59.51,46.56-80.93,0-23.88-22.57-43.23-47.93-43.23Zm32.8,51.19H39.2v-1h6.22c2.21-5.32,5.68-9.43,10.01-12.13-3.94-.81-7.01-4.52-7.01-9,0-4.96,3.98-9.08,8.56-9.08s8.45,3.95,8.45,9c0,2.06-.68,3.87-1.7,5.41,2.69-.65,5.53-1.05,8.6-1.05s5.95.36,8.68,1.09c-1.06-1.49-1.7-3.39-1.7-5.37,0-4.92,3.83-9.04,8.49-9.04s8.45,3.91,8.45,9c0,4.48-3.07,8.23-7.05,8.96,4.37,2.81,7.83,6.96,10.01,12.21h5.61v1Z"/>
</svg>