<svg width="117" height="21" viewBox="0 0 117 21" fill="none" xmlns="http://www.w3.org/2000/svg">
<path d="M60.0907 15.941V13.2764C60.0907 13.1835 60.1373 13.137 60.2304 13.137H65.71C65.8497 13.137 65.9584 13.0441 65.9584 12.8891V9.80626C65.9584 9.66683 65.8653 9.55839 65.71 9.55839H60.2304C60.1373 9.55839 60.0907 9.51191 60.0907 9.40347V6.90928C60.0907 6.81633 60.1373 6.76985 60.2304 6.76985H66.9053C67.045 6.76985 67.1537 6.6769 67.1537 6.52198V3.36164C67.1537 3.22221 67.0605 3.11377 66.9053 3.11377H56.0081C55.8684 3.11377 55.7598 3.20672 55.7598 3.36164V19.4887C55.7598 19.6281 55.8529 19.7365 56.0081 19.7365H66.9053C67.045 19.7365 67.1537 19.6436 67.1537 19.4887V16.3438C67.1537 16.2044 67.0605 16.096 66.9053 16.096H60.2304C60.1373 16.0805 60.0907 16.034 60.0907 15.941Z" fill="#AECA22"/>
<path d="M53.5702 19.4887V16.1734C53.5702 16.034 53.477 15.9255 53.3218 15.9255H47.5938C47.5006 15.9255 47.4541 15.8791 47.4541 15.7861V3.36164C47.4541 3.22221 47.3609 3.11377 47.2057 3.11377H43.387C43.2473 3.11377 43.1387 3.20672 43.1387 3.36164V19.4887C43.1387 19.6281 43.2318 19.7365 43.387 19.7365H53.3218C53.477 19.7211 53.5702 19.6281 53.5702 19.4887Z" fill="#AECA22"/>
<path d="M40.951 19.4887V16.1734C40.951 16.034 40.8579 15.9255 40.7026 15.9255H34.9746C34.8815 15.9255 34.8349 15.8791 34.8349 15.7861V3.36164C34.8349 3.22221 34.7418 3.11377 34.5866 3.11377H30.7679C30.6282 3.11377 30.5195 3.20672 30.5195 3.36164V19.4887C30.5195 19.6281 30.6127 19.7365 30.7679 19.7365H40.7026C40.8579 19.7211 40.951 19.6281 40.951 19.4887Z" fill="#AECA22"/>
<path d="M23.8581 11.4175C23.8581 13.4005 23.8116 14.1596 23.6098 14.7173C23.3148 15.6468 22.5542 16.189 21.4831 16.189C20.412 16.189 19.6514 15.6468 19.3564 14.7173C19.1546 14.1596 19.1081 13.4005 19.1081 11.4175C19.1081 9.43455 19.1546 8.67545 19.3564 8.11774C19.6514 7.18823 20.412 6.64601 21.4831 6.64601C22.5542 6.64601 23.3148 7.18823 23.6098 8.11774C23.8116 8.69094 23.8581 9.45004 23.8581 11.4175ZM25.2707 3.78002C26.1711 3.6251 26.8385 2.8505 26.8385 1.9055C26.8385 0.852053 25.9848 0 24.9292 0C23.8736 0 23.0199 0.852053 23.0199 1.9055C23.0199 2.32378 23.1596 2.71108 23.3924 3.03641C22.787 2.89698 22.1351 2.81952 21.4676 2.81952C20.8001 2.81952 20.1481 2.89698 19.5427 3.03641C19.7756 2.72657 19.9153 2.33927 19.9153 1.9055C19.9463 0.867545 19.0925 0.0154919 18.037 0.0154919C16.9814 0.0154919 16.1276 0.867545 16.1276 1.92099C16.1276 2.866 16.8107 3.64059 17.6955 3.79551C16.5623 4.47715 15.693 5.5151 15.2428 6.90937C14.8548 8.17971 14.7461 9.15569 14.7461 11.433C14.7461 13.7103 14.8392 14.6863 15.2428 15.9566C16.1276 18.6677 18.5492 20.031 21.4831 20.031C24.4169 20.031 26.8385 18.6677 27.7234 15.9566C28.1425 14.6863 28.2201 13.7103 28.2201 11.433C28.2201 9.15569 28.1425 8.17971 27.7234 6.90937C27.2732 5.49961 26.4039 4.46166 25.2707 3.78002Z" fill="#AECA22"/>
<path d="M14.2501 19.4577L8.98784 9.85273L13.9552 3.42361C14.0483 3.28418 14.0018 3.11377 13.8155 3.11377H9.5001C9.2983 3.11377 9.20516 3.19123 9.08098 3.33066L4.29988 9.85273V3.36164C4.29988 3.22221 4.20674 3.11377 4.05151 3.11377H0.248369C0.0931382 3.11377 0 3.22221 0 3.36164V19.4887C0 19.6281 0.0931382 19.7365 0.248369 19.7365H4.06704C4.20674 19.7365 4.3154 19.6436 4.3154 19.4887V15.6312L6.10055 13.2609L9.32934 19.5197C9.40696 19.6591 9.5001 19.7365 9.71742 19.7365H14.0949C14.2657 19.7211 14.3122 19.5816 14.2501 19.4577Z" fill="#AECA22"/>
<path d="M112.215 11.4329C112.215 13.4159 112.169 14.175 111.967 14.7327C111.672 15.6622 110.912 16.2044 109.84 16.2044C108.769 16.2044 108.009 15.6622 107.714 14.7327C107.512 14.175 107.465 13.4159 107.465 11.4329C107.465 9.44999 107.512 8.69089 107.714 8.13318C108.009 7.20367 108.769 6.66145 109.84 6.66145C110.912 6.66145 111.672 7.20367 111.967 8.13318C112.169 8.69089 112.215 9.44999 112.215 11.4329ZM116.562 11.4329C116.562 9.15564 116.484 8.17965 116.065 6.90932C115.18 4.19824 112.759 2.83496 109.825 2.83496C106.891 2.83496 104.469 4.19824 103.585 6.90932C103.197 8.17965 103.088 9.15564 103.088 11.4329C103.088 13.7102 103.181 14.6862 103.585 15.9566C104.469 18.6676 106.891 20.0309 109.825 20.0309C112.759 20.0309 115.18 18.6676 116.065 15.9566C116.5 14.6707 116.562 13.6948 116.562 11.4329Z" fill="#AECA22"/>
<path d="M96.8483 11.4329C96.8483 13.4159 96.8017 14.175 96.5999 14.7327C96.3049 15.6622 95.5443 16.2044 94.4732 16.2044C93.4021 16.2044 92.6415 15.6622 92.3466 14.7327C92.1448 14.175 92.0982 13.4159 92.0982 11.4329C92.0982 9.44999 92.1448 8.69089 92.3466 8.13318C92.6415 7.20367 93.4021 6.66145 94.4732 6.66145C95.5443 6.66145 96.3049 7.20367 96.5999 8.13318C96.8017 8.69089 96.8483 9.44999 96.8483 11.4329ZM101.195 11.4329C101.195 9.15564 101.117 8.17965 100.698 6.90932C99.8132 4.19824 97.3916 2.83496 94.4577 2.83496C91.5239 2.83496 89.1023 4.19824 88.2174 6.90932C87.8294 8.17965 87.7207 9.15564 87.7207 11.4329C87.7207 13.7102 87.8138 14.6862 88.2174 15.9566C89.1023 18.6676 91.5239 20.0309 94.4577 20.0309C97.3916 20.0309 99.8132 18.6676 100.698 15.9566C101.133 14.6707 101.195 13.6948 101.195 11.4329Z" fill="#AECA22"/>
<path d="M73.9663 15.972C73.9197 16.0495 73.8887 16.1114 73.8887 16.2199V19.4887C73.8887 19.6281 73.9818 19.7365 74.137 19.7365H85.6707C85.8104 19.7365 85.919 19.6436 85.919 19.4887V16.1734C85.919 16.034 85.8259 15.9255 85.6707 15.9255H78.9337V15.8481L85.8414 6.87829C85.888 6.80083 85.919 6.73887 85.919 6.63042V3.36164C85.919 3.22221 85.8259 3.11377 85.6707 3.11377H74.4165C74.2767 3.11377 74.1681 3.20672 74.1681 3.36164V6.6769C74.1681 6.81633 74.2612 6.92477 74.4165 6.92477H80.874V7.00223L73.9663 15.972Z" fill="#AECA22"/>
</svg>
