<svg xmlns="http://www.w3.org/2000/svg" width="12.582" height="15.728" viewBox="0 0 12.582 15.728">
  <path id="Marktfinder" d="M10.291,9.864A1.571,1.571,0,0,0,11.4,7.18,1.571,1.571,0,1,0,9.181,9.4,1.513,1.513,0,0,0,10.291,9.864Zm0,5.78a21.633,21.633,0,0,0,3.558-4,6.1,6.1,0,0,0,1.16-3.194,4.751,4.751,0,0,0-1.367-3.51,4.557,4.557,0,0,0-3.352-1.366A4.56,4.56,0,0,0,6.939,4.939a4.753,4.753,0,0,0-1.366,3.51,6.1,6.1,0,0,0,1.16,3.194A21.633,21.633,0,0,0,10.291,15.644Zm0,2.084a26.124,26.124,0,0,1-4.728-5A7.778,7.778,0,0,1,4,8.448a6.081,6.081,0,0,1,1.9-4.7,6.391,6.391,0,0,1,8.787,0,6.081,6.081,0,0,1,1.9,4.7,7.78,7.78,0,0,1-1.563,4.276A26.148,26.148,0,0,1,10.291,17.728ZM10.291,8.448Z" transform="translate(-4 -2)" fill="#fff"/>
</svg>
