<?xml version="1.0" encoding="UTF-8"?><svg id="services" xmlns="http://www.w3.org/2000/svg" viewBox="0 0 144 144"><path d="M72,2.97C33.94,2.97,2.97,33.94,2.97,72s30.97,69.03,69.03,69.03,69.03-30.97,69.03-69.03S110.06,2.97,72,2.97h0Zm0,140.88C32.38,143.85,.15,111.62,.15,72S32.38,.15,72,.15s71.85,32.23,71.85,71.85-32.23,71.85-71.85,71.85h0Z"/><g id="Ebene_7"><g><path d="M92.82,78.18c1.67,1.64,1.67,4.3,0,5.94-1.67,1.64-4.37,1.64-6.04,0-8.33-8.19-21.89-8.19-30.23,0-.84,.82-1.93,1.23-3.02,1.23s-2.19-.41-3.02-1.23c-1.67-1.64-1.67-4.3,0-5.94,11.67-11.47,30.66-11.47,42.32,0Z"/><path d="M71.66,55.29h0c-11.42,0-22.16,4.37-30.23,12.31-1.67,1.64-1.67,4.3,0,5.95,.83,.82,1.93,1.23,3.02,1.23s2.19-.42,3.02-1.23c6.46-6.35,15.05-9.85,24.18-9.85h0c9.14,0,17.72,3.5,24.18,9.85,1.66,1.64,4.38,1.64,6.05,0,1.67-1.64,1.67-4.3,0-5.94-8.08-7.94-18.81-12.31-30.23-12.31Z"/><path d="M64.74,87.31c-3.82,3.76-3.83,9.85,0,13.61,3.82,3.75,10.02,3.75,13.84,0,3.83-3.76,3.83-9.85,0-13.61-3.83-3.76-10.02-3.76-13.84,0Z"/><path d="M110.95,57c-21.66-21.29-56.92-21.29-78.59,0-1.67,1.64-1.67,4.3,0,5.94,.83,.82,1.93,1.23,3.02,1.23s2.19-.41,3.02-1.23c18.34-18.02,48.16-18.02,66.5,0,1.67,1.64,4.38,1.64,6.05,0,1.67-1.64,1.67-4.3,0-5.94Z"/></g></g></svg>