<?xml version="1.0" encoding="UTF-8"?><svg id="services" xmlns="http://www.w3.org/2000/svg" viewBox="0 0 144 144"><path d="M72,2.97C33.94,2.97,2.97,33.94,2.97,72s30.97,69.03,69.03,69.03,69.03-30.97,69.03-69.03S110.06,2.97,72,2.97h0Zm0,140.88C32.38,143.85,.15,111.62,.15,72S32.38,.15,72,.15s71.85,32.23,71.85,71.85-32.23,71.85-71.85,71.85h0Z"/><g><path d="M92.48,69.03c-3.01-1.43-6.4-2.17-10.99-2.4-3.96-.2-7.87-.27-11.88-.33-4.64-.07-8.19-1.12-11.19-3.3-4.32-3.15-5.92-7.08-4.89-12,1.46-7,7.96-11.72,15.02-11,3.28,.34,6.4,1.36,9.17,2.38,1.88,.69,6.89,2.54,8.57-1.35,1.4-3.26,.41-4.63-1.25-6.36-.95-.98-4.6-3.37-8.76-4.43-3.67-.94-9.39-1.44-13.92-.45-8.71,1.91-14.74,7.02-17.93,15.18-3.15,8.06-2.16,15.44,2.96,21.94,3.18,4.05,7.58,6.96,13.07,8.64,2.77,.84,5.79,1.26,9.24,1.27h1.8c3.99,0,8.11,.01,12.13,.52,4.94,.63,5.94,1.84,5.92,2.75-.05,1.77-4.67,1.79-6.41,1.8h-.54c-2.93,.05-5.86,.03-8.8,.01-1.55-.01-3.11-.02-4.66-.02-.95,.01-1.87,.06-2.64,.21-5.02,.93-8.43,3.64-10.14,8.04-1.03,2.68-1.29,5.53-.78,8.73,.39,2.46,1.48,4.43,3.24,5.85,1,.81,2.03,1.47,3.06,1.96,3.78,1.82,12.64,3.9,12.73,3.92,.36,.08,.62,.29,.72,.6,.14,.42,.01,.94-.35,1.38-.19,.23-.41,.42-.66,.63-.14,.12-.28,.24-.43,.38-.22,.2-.28,.52-.17,.79,.11,.26,.36,.42,.64,.42h.34c.21-.02,.41-.03,.59-.06,1.76-.26,3.71-.81,4.79-2.85,1.35-2.54,.84-5.95-1.18-7.92-.92-.9-2.14-1.69-3.74-2.43-1.08-.5-2.23-.87-3.34-1.22-.6-.19-1.2-.38-1.78-.59l-.17-.06c-.84-.3-1.72-.61-2.48-1.02-1.18-.63-1.66-1.7-1.51-3.34,.11-1.28,.79-2.1,2.02-2.41,1.07-.28,2.22-.43,3.34-.44,1.87-.02,3.73,0,5.6,0,1.94,.01,3.88,.02,5.82,0,3.84-.04,6.73-.45,9.39-1.32,5.79-1.89,8.93-7.16,7.81-13.13-.76-4.02-3.17-6.94-7.37-8.94Zm-14.21-33.19c.87,0,1.57,.7,1.57,1.57s-.7,1.57-1.57,1.57-1.57-.7-1.57-1.57,.7-1.57,1.57-1.57Z"/><path d="M63.36,47.77c.21,1.04,.31,2.03,.6,2.97,.04,.14,.12,.25,.17,.39h36.49c.1-.3,.26-.56,.34-.88,.21-.8,.27-1.63,.41-2.47H63.36Z"/><path d="M85.21,61.21c3.41-.34,6.63-1.32,9.54-3.17,2-1.27,3.68-2.82,4.86-4.76h-34.49c1.27,2.12,3.14,3.73,5.35,5.02,4.57,2.67,9.55,3.42,14.75,2.91Z"/></g></svg>