<?xml version="1.0" encoding="UTF-8"?><svg id="services" xmlns="http://www.w3.org/2000/svg" viewBox="0 0 144 144"><path d="M72,2.97C33.94,2.97,2.97,33.94,2.97,72s30.97,69.03,69.03,69.03,69.03-30.97,69.03-69.03S110.06,2.97,72,2.97h0Zm0,140.88C32.38,143.85,.15,111.62,.15,72S32.38,.15,72,.15s71.85,32.23,71.85,71.85-32.23,71.85-71.85,71.85h0Z"/><g><path d="M60.65,68.17c1.07-1.9,1.44-3.71-.06-5.65-.43-.56-.42-1.56-.38-2.35,.04-1.01-.24-1.77-1.11-2.24-.8-.43-1.13-1.09-1.12-1.93,.02-2.6-1.21-4.19-3.73-4.84-1.21-.31-2.07-.98-2.26-2.35-.15-1.09-.86-1.75-1.92-2.05-.4-.11-.79-.25-1.16-.42-1.23-.56-1.45-1.11-.97-2.37,.62-1.61,.56-1.76-.96-2.57-.66-.35-1.32-.69-2.21-1.15,1.18,2.54,.6,4.95,.57,7.33,0,.45,.03,.89,.02,1.34-.03,1.14,.37,1.81,1.61,2.06,1.63,.33,1.83,.98,1,2.42-.71,1.23-.58,1.76,.61,2.56,1.35,.9,1.53,1.47,1.01,3.05-.54,1.61-.27,2.1,1.42,2.42,.84,.16,1.49,.46,1.73,1.36,.27,.98,.09,1.63-.89,1.84-2.13,.45-2.06,2.49-.82,3.81,2.42,2.56,2.41,2.81,.36,5.64-.93,1.29-.91,1.86,.11,3.1,1.05,1.28,.88,2.01-.66,2.62-1.03,.41-1.53,1.16-1.49,2.22,.04,1.16-.32,2.19-.65,3.28-.37,1.25-.39,2.64-.3,3.96,.03,.47,.73,1.06,1.26,1.3,2.68,1.23,2.7,1.2,1.57,3.92-.56,1.36-.4,1.61,1.5,2.18-.28,2.36,1.09,3.64,3.08,4.52,.64,.28,1.22,.72,1.99,1.18-.42-1.06-.75-1.96-1.14-2.83-.91-2.04-.79-4.06,0-6.1,.5-1.31,.96-2.64,1.34-3.99,.28-1.01,.05-1.93-.66-2.78-1.03-1.22-.63-2.47,.89-3.06,2.46-.95,2.86-1.93,1.78-4.33-.2-.44-.39-.88-.56-1.33-.29-.76-.23-1.47,.31-2.12,.24-.29,.46-.6,.66-.92,.65-1.02,.57-1.63-.45-2.23-.78-.46-.95-1.08-.64-1.82,.38-.92,.81-1.82,1.3-2.68Z"/><path d="M42.04,90.81c-.31-.66-.95-1.24-1.57-1.67-1.1-.75-1.75-1.65-1.86-3.03-.18-2.28-.7-2.78-2.89-3.26-.35-.08-.7-.15-1.02-.3-.76-.35-.9-.96-.43-1.65,.06-.09,.13-.17,.2-.25,1.7-1.94,1.67-2.52-.25-4.25-.71-.64-1.47-1.23-2.14-1.92-1.13-1.16-1.2-2.31-.3-3.65,.26-.38,.54-.75,.76-1.16,.63-1.19,.46-2.09-.41-3.12-.58-.68-1.05-1.45-1.57-2.17-.9,.77-1.55,2.7-1.23,4.35,.12,.63,.05,1.04-.42,1.5-.88,.87-.86,1.57-.05,2.52,.21,.24,.43,.48,.67,.68,1.46,1.22,1.1,2.54,.39,3.81-.07,.12-.17,.23-.26,.34-1.88,2.34-1.89,2.58-.15,5.05,.31,.44,.71,.83,.91,1.31,.22,.52,.41,1.14,.34,1.68-.25,1.86,.49,3.37,2.2,4.16,.39,.18,.79,.33,1.19,.47,1.34,.47,2.06,1.4,2.28,2.81,.41,2.67,1.09,3.22,3.78,3.27,.92,.02,1.85,.04,2.76,.16,1.04,.13,1.83,.69,1.92,1.82,.15,1.78,1.29,2.6,2.83,3.04,.61,.18,1.25,.25,1.88,.39,1.36,.32,2.72,.65,4.44,1.06-2.09-1.8-3.97-3.41-5.84-5.04-2.36-2.05-4.78-4.02-6.16-6.95Z"/><path d="M38.74,65.21c-.88,1.17-.44,2.47,.45,3.58,1.25,1.58,1.3,2.29,.27,4.04-.71,1.19-1.54,2.4-1.05,3.84,.31,.92,.85,1.84,1.53,2.52,.75,.75,1.41,1.33,.93,2.5-.12,.3-.04,.93,.18,1.09,.93,.66,.7,1.59,.91,2.49,.25,1.09,.87,2.17,1.57,3.08,.95,1.24,2.16,2.28,3.19,3.46,.46,.52,.78,1.16,1.16,1.75,.12-.04,.23-.08,.35-.12-.5-.99-.86-2.09-1.54-2.94-2.07-2.62-2.51-5.41-1.29-8.49,.32-.8,.26-1.59-.39-2.17-2.25-2.01-1.67-4.44-1.05-6.86,.14-.56,.5-1.06,.74-1.6,.81-1.83,.62-2.92-.77-4.36-1.28-1.33-1.28-1.63,0-3,1.66-1.77,1.08-3.64-1.33-4.24-1.22-.31-3.47-2.74-3.54-3.96-.03-.59,.22-1.2,.33-1.74-1.71,.87-2.26,2.26-1.01,3.81,1.97,2.45,2.32,4.71,.36,7.33Z"/><path d="M93.63,62.71c0-2.37,1.08-4.47,2.74-5.91-1.61-1.43-3.45-2.62-5.51-3.4v-2.67c0-1.07-.87-1.94-1.94-1.94h-1.58v-5h1.58c1.07,0,1.94-.87,1.94-1.94v-2.89c0-1.07-.87-1.94-1.94-1.94h-8.88c-1.07,0-1.94,.87-1.94,1.94v2.89c0,1.07,.87,1.94,1.94,1.94h1.58v5h-1.58c-1.07,0-1.94,.87-1.94,1.94v2.67c-6.73,2.58-11.53,9.05-11.53,16.69v35.25c5.81,1.09,11.79,1.66,17.9,1.66s12.12-.57,17.92-1.66v-34.88c-.3,.04-.6,.09-.91,.09-4.33,0-7.85-3.52-7.85-7.85Z"/><path d="M111.85,48.43c-2.29,0-4.15,1.86-4.15,4.14s1.86,4.15,4.15,4.15,4.15-1.86,4.15-4.15-1.86-4.14-4.15-4.14Z"/><path d="M102.39,47.04c1.82,0,3.3-1.48,3.3-3.3s-1.48-3.29-3.3-3.29-3.3,1.48-3.3,3.29,1.48,3.3,3.3,3.3Z"/><path d="M101.47,57.45c-2.9,0-5.26,2.36-5.26,5.25s2.36,5.26,5.26,5.26,5.26-2.36,5.26-5.26-2.36-5.25-5.26-5.25Z"/></g></svg>