<?xml version="1.0" encoding="UTF-8"?><svg id="services" xmlns="http://www.w3.org/2000/svg" viewBox="0 0 144 144"><path d="M72,2.97C33.94,2.97,2.97,33.94,2.97,72s30.97,69.03,69.03,69.03,69.03-30.97,69.03-69.03S110.06,2.97,72,2.97h0Zm0,140.88C32.38,143.85,.15,111.62,.15,72S32.38,.15,72,.15s71.85,32.23,71.85,71.85-32.23,71.85-71.85,71.85h0Z"/><path d="M110,61.51c.63-.82,1.14-1.65,1.53-2.51,1.01-1.97,1.04-3.93,.08-5.88-.4-.89-.98-1.68-1.73-2.36-1.53-1.33-3.26-2.25-5.19-2.77-2.55-.69-4.83-.41-6.84,.84-.58,.36-1.07,.72-1.48,1.07-.55,.48-1.03,1.03-1.44,1.65-.79,1.12-1.48,2.3-2.1,3.54-.63,1.24-1.29,2.48-1.98,3.72-.6,.95-1.22,1.86-1.86,2.74-.93,.42-1.68,.73-2.26,.95-.88,.34-2.57,.82-5.08,1.45-2.75,.69-5.65,1.36-8.71,1.98-8.12,1.67-14.27,2.49-18.45,2.47-.48,0-1.05-.03-1.7-.08-.31-.03-.61-.05-.9-.07-1.64-1.18-3.19-2.61-4.67-4.29-1.1-1.07-2.18-1.92-3.24-2.56-1.07-.63-2.42-.88-4.05-.75-3.01,.51-5.52,1.93-7.53,4.28-.49,.55-.91,1.15-1.25,1.79-1.02,1.72-1.42,3.53-1.18,5.44,.24,1.91,1.02,3.6,2.34,5.08,1.14,1.05,2.19,2.15,3.16,3.28,.24,.34,.4,.68,.47,1-.8,1.6-1.43,3.18-1.9,4.75-.37,1.12-.55,2.23-.52,3.33,.02,1.1,.45,2.11,1.29,3.01,.72,.81,1.55,1.49,2.5,2.05,1.49,.89,3.1,1.44,4.84,1.65,1.73,.21,3.34-.22,4.81-1.29,1.14-.93,2.08-2.02,2.81-3.28,.92-1.38,1.85-2.75,2.8-4.12,.88-1.3,1.85-2.44,2.9-3.42,1.44-.63,3.14-1.24,5.08-1.85,3.26-1.02,8.29-2.16,15.09-3.42,6.03-1.12,10.21-1.77,12.53-1.96,.89-.07,1.56-.12,2.01-.14,.74-.04,1.42-.04,2.02-.01,1.61,.41,3.2,1.24,4.79,2.5,1.45,1.1,2.96,1.9,4.51,2.38,1.56,.48,3.4,.32,5.53-.5,3.13-1.31,5.23-3.25,6.3-5.82,1.27-2.92,.9-5.61-1.11-8.07-1.78-1.71-2.52-3.65-2.22-5.82Z"/></svg>