<?xml version="1.0" encoding="UTF-8"?><svg id="services" xmlns="http://www.w3.org/2000/svg" viewBox="0 0 144 144"><path d="M72,2.97C33.94,2.97,2.97,33.94,2.97,72s30.97,69.03,69.03,69.03,69.03-30.97,69.03-69.03S110.06,2.97,72,2.97h0Zm0,140.88C32.38,143.85,.15,111.62,.15,72S32.38,.15,72,.15s71.85,32.23,71.85,71.85-32.23,71.85-71.85,71.85h0Z"/><g><path d="M84.7,89.09c-1.18,0-2.26-.2-3.22-.38-.51-.1-1-.19-1.48-.23-.36,.26-.74,.59-1.15,.93-1.54,1.31-3.64,3.11-6.86,3.11s-5.32-1.8-6.86-3.11c-.41-.35-.8-.68-1.16-.94-.44,.04-.94,.14-1.47,.24-.96,.18-2.04,.38-3.22,.38-1.58,0-2.98-.36-4.27-1.11-.54-.31-.97-.69-1.38-1.07l-8.4,22.47c-.12,.32-.04,.68,.21,.92,.16,.15,.37,.24,.59,.24,.11,0,.23-.02,.33-.07l10.59-4.51,5.03,10.36c.14,.3,.44,.48,.77,.48h.04c.34-.02,.64-.24,.76-.56l8.34-22.29,8.59,22.32c.12,.32,.42,.53,.77,.55h.03c.33,0,.63-.19,.77-.49l4.93-10.41,10.64,4.41c.11,.04,.22,.07,.33,.07,.22,0,.43-.08,.6-.24,.24-.24,.32-.6,.2-.92l-8.55-22.21c-.38,.33-.74,.67-1.23,.95-1.3,.75-2.69,1.11-4.27,1.11Z"/><g><path d="M72,36.41c-12.3,0-22.27,9.97-22.27,22.27s9.97,22.27,22.27,22.27,22.27-9.97,22.27-22.27-9.97-22.27-22.27-22.27Zm12.88,16.65l-15.86,15.86c-.67,.67-1.54,1-2.42,1s-1.75-.33-2.42-1l-5.07-5.07c-1.33-1.33-1.33-3.5,0-4.83,1.33-1.33,3.5-1.33,4.83,0l2.66,2.65,13.45-13.45c1.33-1.33,3.5-1.33,4.83,0,1.33,1.33,1.33,3.5,0,4.83Z"/><path d="M103.39,58.58c0-3.41-2.93-5.12-4.07-7.32-.11-2.48,1.57-5.42-.13-8.38-1.71-2.96-5.1-2.97-7.19-4.3-1.34-2.09-1.35-5.48-4.3-7.19-2.96-1.71-5.9-.02-8.38-.13-2.2-1.14-3.91-4.07-7.32-4.07s-5.12,2.93-7.32,4.07c-2.48,.11-5.42-1.57-8.38,.13-2.96,1.71-2.97,5.1-4.3,7.19-2.09,1.34-5.48,1.35-7.19,4.3-1.71,2.96-.02,5.9-.13,8.38-1.14,2.2-4.07,3.91-4.07,7.32s2.93,5.12,4.07,7.32c.11,2.48-1.57,5.42,.13,8.38,1.71,2.96,5.1,2.97,7.19,4.3,1.34,2.09,1.35,5.48,4.3,7.19,2.96,1.71,5.9,.02,8.38,.13,2.2,1.14,3.91,4.07,7.32,4.07s5.12-2.93,7.32-4.07c2.48-.11,5.42,1.57,8.38-.13,2.96-1.71,2.97-5.1,4.3-7.19,2.09-1.34,5.48-1.35,7.19-4.3,1.71-2.96,.02-5.9,.13-8.38,1.14-2.2,4.07-3.91,4.07-7.32Zm-31.39,24.09c-13.22,0-23.98-10.76-23.98-23.98s10.76-23.98,23.98-23.98,23.98,10.76,23.98,23.98-10.76,23.98-23.98,23.98Z"/></g></g></svg>