<?xml version="1.0" encoding="UTF-8"?><svg id="services" xmlns="http://www.w3.org/2000/svg" viewBox="0 0 144 144"><path d="M72,2.97C33.94,2.97,2.97,33.94,2.97,72s30.97,69.03,69.03,69.03,69.03-30.97,69.03-69.03S110.06,2.97,72,2.97h0Zm0,140.88C32.38,143.85,.15,111.62,.15,72S32.38,.15,72,.15s71.85,32.23,71.85,71.85-32.23,71.85-71.85,71.85h0Z"/><g><path d="M71.38,64.68c23.58-.61,42.57-5.8,42.42-11.59,0-.28-.1-.55-.19-.83-.07-.19-.17-.39-.28-.57-.09-.15-.18-.29-.29-.44-.14-.19-.31-.37-.5-.55-.14-.14-.29-.28-.46-.42-.21-.18-.45-.35-.7-.52-.2-.14-.41-.27-.63-.4-.28-.17-.57-.33-.89-.49-.25-.13-.52-.26-.8-.38-.34-.15-.69-.31-1.06-.45-.31-.12-.63-.24-.96-.36-.39-.14-.79-.28-1.22-.42-.36-.12-.74-.23-1.12-.34-.44-.13-.88-.25-1.35-.38-.42-.11-.85-.21-1.29-.31-.48-.11-.96-.23-1.47-.33-.47-.1-.96-.19-1.44-.28-.52-.1-1.03-.2-1.57-.29-.52-.09-1.06-.17-1.6-.25-.55-.08-1.09-.17-1.65-.25-.58-.08-1.19-.15-1.79-.22-.56-.07-1.11-.14-1.69-.2-.64-.07-1.31-.12-1.97-.18-.57-.05-1.13-.11-1.72-.15-.71-.05-1.44-.09-2.16-.14-.56-.03-1.12-.07-1.69-.1-.79-.04-1.6-.06-2.41-.09-.54-.02-1.07-.04-1.62-.06-.92-.02-1.86-.03-2.8-.03-.46,0-.91-.01-1.37-.01-1.41,0-2.84,.02-4.29,.06s-2.88,.09-4.29,.16c-.46,.02-.91,.06-1.37,.08-.94,.05-1.87,.11-2.79,.18-.55,.04-1.08,.09-1.61,.14-.8,.07-1.61,.13-2.4,.21-.57,.06-1.12,.13-1.69,.19-.72,.08-1.45,.16-2.15,.25-.58,.07-1.14,.16-1.71,.24-.66,.09-1.32,.18-1.96,.28-.57,.09-1.12,.19-1.67,.28-.6,.1-1.2,.2-1.78,.31-.56,.11-1.09,.22-1.63,.33-.54,.11-1.08,.22-1.59,.34-.53,.12-1.04,.25-1.55,.37-.48,.12-.97,.24-1.43,.36-.5,.13-.97,.27-1.44,.41-.43,.13-.87,.25-1.28,.38-.46,.14-.89,.29-1.33,.44-.38,.13-.75,.26-1.11,.4-.42,.16-.81,.32-1.19,.48-.32,.14-.64,.27-.94,.41-.36,.17-.7,.34-1.03,.51-.27,.14-.53,.28-.78,.42-.3,.18-.59,.35-.86,.53-.22,.14-.42,.29-.61,.43-.24,.18-.47,.37-.67,.56-.16,.15-.3,.29-.44,.44-.17,.19-.33,.38-.47,.57-.1,.15-.19,.3-.27,.45-.1,.19-.19,.39-.25,.59-.08,.28-.16,.56-.15,.84,.15,5.8,19.38,10,42.96,9.39Z"/><path d="M115,56.76c-2.02,2.57-6.28,4.78-12.83,6.57-8.21,2.24-19.12,3.64-30.73,3.94-11.61,.3-22.58-.54-30.89-2.36-6.64-1.45-11-3.44-13.15-5.9l-7.32,31.26c.16,6.26,23.54,10.74,52.21,10,28.68-.74,51.79-6.42,51.63-12.68l-8.92-30.84Zm-28,29.66c-1.13,.16-2.16-.15-3.08-.78-.77-.54-1.6-.95-2.46-1.31l-17.68,4.31s-.03,.03-.05,.05c-.66,.66-1.25,1.37-1.7,2.2-.46,.83-1.09,1.51-1.95,1.94-.87,.44-1.76,.5-2.63,.03-.74-.4-1.21-1.02-1.44-2.04-.09-.37-.03-.94-.02-1.51,0-.52,.02-1.05,0-1.57-.04-.75-.35-1.41-.69-2.07-.25-.49-.52-.98-.73-1.49-.78-1.91,.56-3.49,2.15-3.72,1.13-.16,2.16,.15,3.08,.78,.66,.46,1.37,.83,2.1,1.16l18.36-4.48c.55-.58,1.04-1.21,1.43-1.92,.46-.83,1.09-1.51,1.95-1.94,.87-.44,1.76-.5,2.63-.03,.74,.4,1.21,1.02,1.44,2.04,.09,.37,.03,.94,.02,1.51,0,.52-.02,1.05,0,1.57,.04,.75,.35,1.41,.69,2.07,.25,.49,.52,.98,.73,1.49,.78,1.91-.56,3.49-2.15,3.72Z"/></g></svg>