<?xml version="1.0" encoding="UTF-8"?><svg id="services" xmlns="http://www.w3.org/2000/svg" viewBox="0 0 144 144"><path d="M72,2.97C33.94,2.97,2.97,33.94,2.97,72s30.97,69.03,69.03,69.03,69.03-30.97,69.03-69.03S110.06,2.97,72,2.97h0Zm0,140.88C32.38,143.85,.15,111.62,.15,72S32.38,.15,72,.15s71.85,32.23,71.85,71.85-32.23,71.85-71.85,71.85h0Z"/><g><path d="M64.18,30.11c1.06-5.46,3.35-7.54,8.02-7.42,4.21,.11,6.67,2.53,7.35,7.38,.77,.15,1.61,.3,2.44,.49,3.71,.84,6.53,3.77,6.77,6.93,.1,1.33-.42,2.09-2.11,2.09-9.82,0-19.63-.01-29.45,0-1.87,0-2.3-.9-2.18-2.26,.25-3.01,3.14-5.95,6.7-6.77,.76-.18,1.55-.29,2.46-.45"/><path d="M101.54,37.01c-.3-.65-.94-1.59-1.48-1.62-2.87-.16-5.74-.08-8.61-.08,.05,4.92-1.47,7.28-5.08,7.34-9.65,.14-19.31,.12-28.96,0-3.06-.04-4.83-2.19-4.93-5.3-.02-.59,0-1.17,0-2.11-2.29,0-4.3,0-6.31,0-3.89,0-4.07,.18-4.07,4.04,0,23.13,0,46.26,0,69.39,0,3.57,.31,3.88,3.8,3.88,17.29,0,34.58,0,51.87,0,3.75,0,3.89-.14,3.89-3.94,0-23.2,0-46.41,0-69.61,0-.67,.15-1.43-.11-2Zm-50.88,16.99h42.45v2.83H50.66v-2.83Zm0,11.72h42.45v2.83H50.66v-2.83Zm42.45,14.55H50.66v-2.83h42.45v2.83Z"/></g></svg>