<?xml version="1.0" encoding="UTF-8"?><svg id="services" xmlns="http://www.w3.org/2000/svg" viewBox="0 0 144 144"><path d="M72,2.97C33.94,2.97,2.97,33.94,2.97,72s30.97,69.03,69.03,69.03,69.03-30.97,69.03-69.03S110.06,2.97,72,2.97h0Zm0,140.88C32.38,143.85,.15,111.62,.15,72S32.38,.15,72,.15s71.85,32.23,71.85,71.85-32.23,71.85-71.85,71.85h0Z"/><g><path d="M53.97,81.98c5.97-9.97,12.74-14.09,21.84-13.41,8.82,.66,14.21,5.83,14.79,14.18,.06,.82-.38,1.58-1.12,1.95-.74,.36-1.62,.25-2.23-.28-1.86-1.61-6.28-4.41-8.11-2.75-1.96,1.77-.13,5.32-.11,5.36,2.12,3.73,11.21,8.76,21.23,5.41,1.09-6.49-.21-14.48-6.28-24.03-19.55-30.76-21.85-40.27-22.42-42.01,0,0,0,0,0,0,0,0,0,0,0,0,0,0,0,0-.01,0,0,.01,0,0,0,0-.57,1.74-2.87,11.25-22.42,42.01-5.59,8.79-7.13,16.26-6.49,22.46,2.45-.27,7.1-1.79,11.35-8.89Z"/><path d="M93.64,97.58c-8.41,0-15.67-4.2-18.17-8.61-1.28-2.39-2.49-7.2,.95-10.31,2.7-2.44,6.21-1.64,8.98-.29-2.02-4.19-6.27-5.5-9.9-5.77-7.48-.54-12.91,2.86-18.06,11.46-4.91,8.19-10.6,10.31-14.08,10.77,3.47,12.78,16.1,18.98,16.1,18.98,4.52,2.88,12.07,2.87,12.07,2.87h.03s7.56,.01,12.08-2.87c0,0,11.21-5.52,15.41-16.86-1.83,.4-3.64,.62-5.4,.62Z"/></g></svg>