<?xml version="1.0" encoding="UTF-8"?><svg id="services" xmlns="http://www.w3.org/2000/svg" viewBox="0 0 144 144"><path d="M72,2.97C33.94,2.97,2.97,33.94,2.97,72s30.97,69.03,69.03,69.03,69.03-30.97,69.03-69.03S110.06,2.97,72,2.97h0Zm0,140.88C32.38,143.85,.15,111.62,.15,72S32.38,.15,72,.15s71.85,32.23,71.85,71.85-32.23,71.85-71.85,71.85h0Z"/><g><path d="M101.01,68.21l-13.81,13.81-2.73-2.73c-1.37-1.37-3.59-1.37-4.97,0-1.37,1.37-1.37,3.6,0,4.97l5.21,5.21c.69,.69,1.58,1.03,2.48,1.03s1.8-.34,2.48-1.03l16.3-16.3c1.37-1.37,1.37-3.59,0-4.97-1.37-1.37-3.59-1.37-4.97,0Z"/><path d="M92.74,52.56c-3.14,0-6.14,.58-8.93,1.59-11.76-19.89-13.45-26.73-13.93-28.17,0,0,0,0,0,0,0,0,0,0,0,0,0,0,0,0-.01,0,0,.01,0,0,0,0-.57,1.73-2.86,11.22-22.36,41.9-19.5,30.67,10.32,45.3,10.32,45.3,4.5,2.88,12.04,2.86,12.04,2.86h.03s7.54,.01,12.05-2.86c0,0,5.24-2.62,9.89-7.88,.31,.01,.62,.05,.93,.05,14.55,0,26.39-11.84,26.39-26.39s-11.84-26.39-26.39-26.39Zm1.83,49.18c-.61,.05-1.21,.09-1.83,.09-12.64,0-22.88-10.24-22.88-22.88,0-1.14,.11-2.25,.27-3.34,.03-.23,.06-.45,.1-.68,.19-1.06,.44-2.09,.77-3.09,.05-.16,.11-.31,.17-.46,.33-.94,.72-1.86,1.16-2.74,.06-.11,.11-.23,.17-.34,.5-.95,1.07-1.85,1.69-2.71,.1-.14,.2-.27,.3-.41,1.32-1.75,2.89-3.31,4.66-4.61,.09-.07,.18-.14,.28-.21,.9-.65,1.85-1.23,2.84-1.75,.06-.03,.11-.05,.17-.08,1.02-.52,2.09-.97,3.19-1.33,2.24-.73,4.63-1.14,7.11-1.14,12.64,0,22.88,10.24,22.88,22.88s-9.27,21.85-21.05,22.79Z"/></g></svg>