<?xml version="1.0" encoding="UTF-8"?><svg id="services" xmlns="http://www.w3.org/2000/svg" viewBox="0 0 144 144"><path d="M72,2.97C33.94,2.97,2.97,33.94,2.97,72s30.97,69.03,69.03,69.03,69.03-30.97,69.03-69.03S110.06,2.97,72,2.97h0Zm0,140.88C32.38,143.85,.15,111.62,.15,72S32.38,.15,72,.15s71.85,32.23,71.85,71.85-32.23,71.85-71.85,71.85h0Z"/><g><path d="M110.05,101.12l-17.89-17.89c2.96-5.02,4.54-10.91,4.24-17.15-.81-16.49-14.36-29.4-30.85-29.4-.51,0-1.02,.01-1.53,.04-8.25,.4-15.84,3.99-21.39,10.11-5.55,6.12-8.38,14.03-7.97,22.27,.81,16.49,14.36,29.4,30.85,29.4,.51,0,1.02-.01,1.53-.04,5.18-.25,10-1.79,14.19-4.27l17.87,17.87c1.51,1.51,3.49,2.27,5.48,2.27s3.96-.76,5.48-2.27c3.03-3.03,3.03-7.93,0-10.95Zm-43.32-9.04c-.41,.02-.81,.03-1.22,.03-12.99,0-23.82-10.2-24.46-23.31-.66-13.52,9.76-25.02,23.28-25.68,.41-.02,.81-.03,1.22-.03,12.99,0,23.82,10.2,24.46,23.31,.23,4.66-.88,9.06-2.96,12.87-.37,.68-.77,1.34-1.2,1.98-.21,.31-.41,.63-.63,.93-.6,.81-1.26,1.57-1.95,2.29-.26,.27-.53,.54-.8,.8-.75,.72-1.54,1.41-2.38,2.03-.21,.15-.43,.29-.65,.44-.81,.56-1.65,1.07-2.53,1.53-3.07,1.61-6.51,2.62-10.2,2.81Z"/><path d="M60.98,63.14c2-.33,3.24-2.9,2.77-5.73-.47-2.83-2.48-4.85-4.48-4.52-2,.33-3.24,2.9-2.77,5.73,.47,2.83,2.48,4.85,4.48,4.52Z"/><path d="M69.37,63.26c1.96,.51,4.15-1.32,4.87-4.09,.73-2.78-.27-5.44-2.24-5.96-1.96-.51-4.15,1.32-4.87,4.09-.73,2.78,.27,5.44,2.24,5.96Z"/><path d="M75.65,69.61c1.73,.86,4.04-.27,5.16-2.53,1.11-2.25,.61-4.77-1.13-5.63-1.74-.86-4.04,.27-5.16,2.52-1.11,2.25-.61,4.77,1.13,5.63Z"/><path d="M54.88,69.8c1.82-.67,2.58-3.12,1.72-5.48-.87-2.36-3.04-3.72-4.86-3.06-1.81,.67-2.58,3.12-1.72,5.48,.87,2.36,3.04,3.72,4.86,3.06Z"/><path d="M74.41,73.04c-1.77-1.42-4.77-5.63-4.77-5.63,0,0-1.93-3.01-4.26-3.01h-.57c-2.33,0-4.26,3.01-4.26,3.01,0,0-3,4.2-4.77,5.63-2.12,1.7-2.29,6.36-.16,8.14,1.96,1.65,3.2,1.23,5.79,.55,1.74-.46,1.82-.74,3.69-.74s1.96,.28,3.69,.74c2.59,.68,3.83,1.1,5.79-.55,2.12-1.79,1.96-6.44-.16-8.14Z"/></g></svg>