<?xml version="1.0" encoding="UTF-8"?><svg id="services" xmlns="http://www.w3.org/2000/svg" viewBox="0 0 144 144"><path d="M72,2.97C33.94,2.97,2.97,33.94,2.97,72s30.97,69.03,69.03,69.03,69.03-30.97,69.03-69.03S110.06,2.97,72,2.97h0Zm0,140.88C32.38,143.85,.15,111.62,.15,72S32.38,.15,72,.15s71.85,32.23,71.85,71.85-32.23,71.85-71.85,71.85h0Z"/><g><path d="M83.76,62.35c1.97-.3,3.6-1.34,4.97-2.74,3.04-3.09,4.34-6.9,4.45-10.13,.02-3.99-.6-6.33-2.2-8.52-1.73-2.37-4.07-3.52-7.05-3.06-2.35,.37-4.19,1.65-5.73,3.4-2.34,2.68-3.55,5.84-3.82,9.36-.22,2.82,.23,5.53,1.7,7.99,1.7,2.85,4.42,4.19,7.67,3.7Z"/><path d="M56.49,60.96c1.89,1.16,3.93,1.51,6.06,.78,2.61-.9,4.13-2.89,5.08-5.37,1.16-3.05,1.15-6.17,.3-9.29-.87-3.19-2.48-5.91-5.3-7.77-3.35-2.22-7.34-1.54-9.82,1.61-1.81,2.3-2.38,4.99-2.51,8.39,.15,.88,.27,2.33,.64,3.71,.89,3.29,2.57,6.1,5.56,7.93Z"/><path d="M109.05,62.55c-.95-4.9-5.32-7.3-9.96-5.49-5.24,2.04-8.84,8.67-7.7,14.18,1.08,5.21,5.65,7.64,10.45,5.35,4.92-2.34,7.07-6.56,7.49-11.77-.1-.81-.13-1.55-.28-2.28Z"/><path d="M50.55,74.34c1.14-1.68,1.49-3.56,1.51-5.54,0-.32,.02-.64,0-.96-.05-.5-.1-1-.21-1.49-.8-3.73-2.63-6.78-5.96-8.8-1.66-1.01-3.49-1.44-5.42-1.02-2.93,.63-4.58,2.63-5.34,5.38-1.11,4.02-.13,7.7,2.21,11.05,1.29,1.84,2.97,3.24,5.13,4.01,3.13,1.12,6.22,.11,8.08-2.63Z"/><path d="M91.15,82.46c-2.85-2.54-5.15-5.49-7.17-8.7-1.22-1.95-2.45-3.91-4.05-5.6-2.87-3.02-6.45-3.99-10.47-3.58-2.38,.25-4.37,1.41-5.93,3.15-1.66,1.85-3.22,3.8-4.65,5.82-2.35,3.29-4.84,6.42-7.84,9.17-3.34,3.05-5.46,6.84-5.85,11.46-.54,6.47,4.49,13.21,12.76,11.83,2.21-.37,4.38-.99,6.54-1.55,2.89-.75,5.8-1.38,8.79-.88,2.09,.35,4.16,.87,6.22,1.36,2.24,.54,4.43,1.29,5.99,1.27,4.23,.01,7.1-1.3,9.33-3.87,2.65-3.04,3.21-6.6,2.25-10.44-.94-3.78-3.05-6.89-5.92-9.44Zm-11.14,6.64h-6.12v5.96h-5.14v-5.96h-6.15v-5.15h6.15v-6.3h5.14v6.3h6.12v5.15Z"/></g></svg>