<?xml version="1.0" encoding="UTF-8"?><svg id="services" xmlns="http://www.w3.org/2000/svg" viewBox="0 0 144 144"><path d="M72,2.97C33.94,2.97,2.97,33.94,2.97,72s30.97,69.03,69.03,69.03,69.03-30.97,69.03-69.03S110.06,2.97,72,2.97h0Zm0,140.88C32.38,143.85,.15,111.62,.15,72S32.38,.15,72,.15s71.85,32.23,71.85,71.85-32.23,71.85-71.85,71.85h0Z"/><g id="Ebene_7"><g><path d="M36.04,72.92c-8.28,11.25-3.33,24.85-3.33,24.85,0,0-6.66-11.49-2.35-22.55,3.17-8.14,11-14.37,11-14.37l-3.83-2.8,16.73-5.73-6.48,16.19-2.78-3.78s-5.52,3.5-8.96,8.17h0Z"/><path d="M91.33,109.72c13.89,1.54,23.18-9.54,23.18-9.54,0,0-6.61,11.52-18.35,13.32-8.64,1.33-17.94-2.34-17.94-2.34l-.5,4.71-13.33-11.63,17.26-2.48-1.88,4.29s5.79,3.04,11.56,3.68h0Z"/><path d="M95.56,43.43c-5.61-12.79-19.85-15.3-19.85-15.3,0,0,13.28-.03,20.71,9.23,5.47,6.82,6.93,16.7,6.93,16.7l4.34-1.92-3.41,17.36-10.78-13.7,4.66-.53s-.27-6.53-2.6-11.85h0Z"/><path d="M82.05,65.56c1.83-3.01,3.78-6.11,5.45-8.49,7.42-10.62,.57-21.07-8.78-23.49-14.86-3.84-29.85,9.17-23.26,12.59,7.62,3.93,10.62,12.8,11.79,19.6,1.71-1.29,3.77-2.17,6.05-2.44,3.22-.39,6.3,.49,8.74,2.23h0Z"/><path d="M109.34,74.38c-7.08,4.2-15.78,2.38-22.12-.08,.69,5.83-2.75,11.2-8,13.17,1.45,2.9,2.86,5.86,3.9,8.3,5.07,11.92,17.57,11.65,24.57,5,11.13-10.57,8.04-30.18,1.65-26.39h0Z"/><path d="M62.38,77.25c-.16-1.34-.1-2.64,.14-3.89-3.52-.14-7.17-.35-10.05-.65-12.89-1.35-18.71,9.72-16.28,19.07,3.84,14.85,22.5,21.66,22.28,14.23-.24-8.13,5.42-14.77,10.59-19.13-3.56-1.84-6.16-5.35-6.68-9.62h0Z"/><path d="M82.75,72.3c-.6-1.37-1.53-2.54-2.69-3.42-1.73-1.33-3.96-2.01-6.29-1.73-2.45,.29-4.53,1.58-5.9,3.42-.65,.87-1.14,1.85-1.43,2.92-.29,1.04-.38,2.16-.24,3.3,.43,3.64,3.07,6.48,6.42,7.35,1.02,.27,2.11,.36,3.22,.22,.57-.06,1.12-.19,1.64-.36,3.86-1.25,6.44-5.09,5.94-9.28-.11-.86-.33-1.67-.66-2.43h0Z"/></g></g></svg>