<?xml version="1.0" encoding="UTF-8"?><svg id="services" xmlns="http://www.w3.org/2000/svg" viewBox="0 0 144 144"><path d="M72,2.97C33.94,2.97,2.97,33.94,2.97,72s30.97,69.03,69.03,69.03,69.03-30.97,69.03-69.03S110.06,2.97,72,2.97h0Zm0,140.88C32.38,143.85,.15,111.62,.15,72S32.38,.15,72,.15s71.85,32.23,71.85,71.85-32.23,71.85-71.85,71.85h0Z"/><g><polygon points="93.05 86.37 93.05 61.08 73.09 66.45 73.09 91.74 93.05 86.37"/><polygon points="50.11 86.37 70.07 91.74 70.07 66.45 50.11 61.08 50.11 86.37"/><polygon points="71.58 52.25 50.11 58.02 71.58 63.8 93.05 58.02 71.58 52.25"/><path d="M71.58,109.23c-18.75,0-34.27-13.95-36.82-32.01h7.18l-10.44-10.44-10.44,10.44h6.26c2.59,22.13,21.44,39.38,44.26,39.38,20.62,0,37.97-14.09,43.04-33.13h-7.64c-4.85,14.93-18.87,25.77-35.4,25.77Z"/><path d="M71.58,34.77c18.75,0,34.26,13.95,36.81,32h-6.35l10.44,10.44,10.44-10.44h-7.09c-2.6-22.13-21.44-39.37-44.26-39.37-20.62,0-37.96,14.09-43.04,33.13h7.64c4.85-14.93,18.87-25.76,35.4-25.76Z"/></g></svg>