<?xml version="1.0" encoding="UTF-8"?><svg id="services" xmlns="http://www.w3.org/2000/svg" viewBox="0 0 144 144"><path d="M72,2.97C33.94,2.97,2.97,33.94,2.97,72s30.97,69.03,69.03,69.03,69.03-30.97,69.03-69.03S110.06,2.97,72,2.97h0Zm0,140.88C32.38,143.85,.15,111.62,.15,72S32.38,.15,72,.15s71.85,32.23,71.85,71.85-32.23,71.85-71.85,71.85h0Z"/><g><path d="M116.26,37.19h-30.33c-1.51,0-2.74,1.23-2.74,2.74v18.72c0,1.51,1.23,2.74,2.74,2.74h4.57v6.94c0,.66,.41,1.25,1.03,1.47,.18,.06,.36,.1,.54,.1,.45,0,.89-.2,1.2-.56l6.71-7.95h16.28c1.51,0,2.74-1.23,2.74-2.74v-18.72c0-1.51-1.23-2.74-2.74-2.74Z"/><circle cx="45.98" cy="55.83" r="11.65"/><path d="M66.97,85.05v-.71c-4.05-2.37-6.81-6.71-6.81-11.74,0-.24,.06-.46,.07-.69-3.75-1.69-8.75-2.72-14.26-2.72-11.59,0-20.97,4.55-20.97,10.2v10.96c6.8,1.27,13.81,1.94,20.97,1.94,2.17,0,4.33-.08,6.47-.2,2.51-3.43,7.77-6,14.53-7.04Zm-32.62,.25c.94-2.38,2.52-4.19,4.56-5.37-1.75-.24-3.11-1.74-3.11-3.56,0-1.99,1.61-3.6,3.6-3.6s3.6,1.61,3.6,3.6c0,.85-.3,1.64-.8,2.26,1.18-.29,2.45-.44,3.76-.44s2.58,.15,3.76,.44c-.5-.62-.8-1.4-.8-2.26,0-1.99,1.61-3.6,3.6-3.6s3.6,1.61,3.6,3.6c0,1.82-1.35,3.32-3.11,3.56,2.04,1.18,3.62,2.99,4.56,5.37h-23.26Z"/><path d="M73.79,86.54c-11.59,0-20.97,4.55-20.97,10.2v8.13c6.8,1.27,13.81,1.94,20.97,1.94s14.2-.67,21-1.94v-8.13c0-5.64-9.41-10.2-21-10.2Z"/><circle cx="73.8" cy="72.61" r="11.65"/></g></svg>